<svg width="511" height="511" viewBox="0 0 511 511" fill="none" xmlns="http://www.w3.org/2000/svg">
<path d="M0.5 255.5C0.5 114.667 114.667 0.5 255.5 0.5C396.333 0.5 510.5 114.667 510.5 255.5C510.5 396.333 396.333 510.5 255.5 510.5C114.667 510.5 0.5 396.333 0.5 255.5Z" fill="white" stroke="black"/>
<path d="M255.5 28C129.856 28 28 129.856 28 255.5C28 381.144 129.856 483 255.5 483C381.144 483 483 381.144 483 255.5C483 129.856 381.144 28 255.5 28Z" fill="#1A1A1A"/>
<path d="M239 417V185" stroke="white" stroke-width="6" stroke-linecap="round"/>
<path d="M262 417V261" stroke="white" stroke-width="4" stroke-linecap="round"/>
<path d="M262 320L291 291" stroke="white" stroke-width="2" stroke-linecap="round"/>
<path d="M239 307L210 272" stroke="white" stroke-width="2" stroke-linecap="round"/>
<path d="M242 295L284 220" stroke="white" stroke-width="2" stroke-linecap="round"/>
<path d="M298.315 182.05C290.582 193.346 284 214 284 214C284 214 302.425 204.531 312.633 196.251C332.756 179.923 352 143 352 143C352 143 312.921 160.716 298.315 182.05Z" fill="white" stroke="white" stroke-width="0.5"/>
<path d="M252.154 225.815C253.077 236.726 259.022 253 259.022 253C259.022 253 264.972 238.049 266.851 227.846C270.551 207.728 264.132 175 264.132 175C264.132 175 250.407 205.211 252.154 225.815Z" fill="white" stroke="white" stroke-width="0.5"/>
<path d="M305.35 270.03C298.35 277.104 291 291 291 291C291 291 305.487 286.587 313.892 281.978C330.467 272.889 349 249 349 249C349 249 318.575 256.671 305.35 270.03Z" fill="white" stroke="white" stroke-width="0.5"/>
<path d="M320.165 279.462C309.448 282.117 294 290.797 294 290.797C294 290.797 309.537 294.619 319.882 294.971C340.282 295.663 372 283.933 372 283.933C372 283.933 340.404 274.449 320.165 279.462Z" fill="white" stroke="white" stroke-width="0.5"/>
<path d="M310.248 301.556C298.504 303.424 281 311.72 281 311.72C281 311.72 297.116 317.859 308.108 319.414C329.781 322.485 365 312.483 365 312.483C365 312.483 332.429 298.023 310.248 301.556Z" fill="white" stroke="white" stroke-width="0.5"/>
<path d="M302.023 323.543C292.401 318.192 275 314 275 314C275 314 283.382 327.328 290.557 334.611C304.701 348.971 336 362 336 362C336 362 320.199 333.652 302.023 323.543Z" fill="white" stroke="white" stroke-width="0.5"/>
<path d="M203.344 122.251C193.427 113.551 174 104 174 104C174 104 180.263 121.34 186.755 131.534C199.554 151.635 233 175 233 175C233 175 222.071 138.683 203.344 122.251Z" fill="white" stroke="white" stroke-width="0.5"/>
<path d="M248.544 118.045C246.792 103.643 238.385 81 238.385 81C238.385 81 231.635 98.9077 229.798 111.682C226.176 136.87 236.057 181 236.057 181C236.057 181 251.855 145.245 248.544 118.045Z" fill="white" stroke="white" stroke-width="0.5"/>
<path d="M288.034 148.253C294.108 139.629 301 123 301 123C301 123 289.244 128.872 282.26 134.677C268.491 146.125 252 175 252 175C252 175 276.563 164.541 288.034 148.253Z" fill="white" stroke="white" stroke-width="0.5"/>
<path d="M195.723 162.627C185.447 161.056 168 162.932 168 162.932C168 162.932 178.726 171.757 187.058 175.76C203.488 183.654 236 185 236 185C236 185 215.123 165.594 195.723 162.627Z" fill="white" stroke="white" stroke-width="0.5"/>
<path d="M202.689 188.017C194.739 187.793 181 189.898 181 189.898C181 189.898 188.917 194.06 195.221 195.733C207.652 199.033 233 197.758 233 197.758C233 197.758 217.703 188.438 202.689 188.017Z" fill="white" stroke="white" stroke-width="0.5"/>
<path d="M161.649 259.514C148.47 257.911 126 260.569 126 260.569C126 260.569 139.615 270.751 150.251 275.284C171.221 284.221 213 285 213 285C213 285 186.538 262.542 161.649 259.514Z" fill="white" stroke="white" stroke-width="0.5"/>
<path d="M198.553 235.818C190.505 227.452 174 217 174 217C174 217 177.92 231.663 182.747 240.702C192.264 258.524 220 282 220 282C220 282 213.756 251.615 198.553 235.818Z" fill="white" stroke="white" stroke-width="0.5"/>
<path d="M192.038 295.011C181.892 295.255 165 299.937 165 299.937C165 299.937 176.118 306.429 184.547 308.794C201.166 313.457 233 309.278 233 309.278C233 309.278 211.193 294.551 192.038 295.011Z" fill="white" stroke="white" stroke-width="0.5"/>
<path d="M189.098 319.546C180.597 324.767 168 337 168 337C168 337 179.787 336.866 187.788 334.649C203.566 330.279 229 311.067 229 311.067C229 311.067 205.153 309.681 189.098 319.546Z" fill="white" stroke="white" stroke-width="0.5"/>
<path d="M267.984 141.321C273.551 127.258 281 101 281 101C281 101 272.017 111.93 266.298 121.913C255.019 141.598 239 188 239 188C239 188 257.47 167.882 267.984 141.321Z" fill="white" stroke="white" stroke-width="0.5"/>
<path d="M319.801 208.452C306.612 211.376 288 221.368 288 221.368C288 221.368 307.745 226.265 320.714 226.913C346.286 228.191 385 214.927 385 214.927C385 214.927 344.705 202.932 319.801 208.452Z" fill="white" stroke="white" stroke-width="0.5"/>
</svg>
