<svg width="170" height="165" viewBox="0 0 170 165" fill="none" xmlns="http://www.w3.org/2000/svg">
<rect x="16.5" y="19.5001" width="87.2609" height="115" rx="4.5" fill="#1A1A1A" stroke="#AEF9A1"/>
<path d="M29.0177 44.7247H25.7223L30.7436 30.1793H34.7066L39.7208 44.7247H36.4254L32.7819 33.5031H32.6683L29.0177 44.7247ZM28.8117 39.0074H36.5958V41.408H28.8117V39.0074Z" fill="#AEF9A1"/>
<path d="M26.2464 50.9421C26.2464 50.9421 28.7618 49.3857 30.0882 48.0593C31.4146 46.7329 32.971 44.2175 32.971 44.2175C32.971 44.2175 34.5229 46.73 35.8468 48.054C37.1708 49.3779 39.6833 50.9298 39.6833 50.9298C39.6833 50.9298 37.1679 52.4862 35.8415 53.8126C34.5151 55.139 32.9587 57.6544 32.9587 57.6544C32.9587 57.6544 31.4068 55.1419 30.0829 53.8179C28.7589 52.494 26.2464 50.9421 26.2464 50.9421Z" fill="#AEF9A1"/>
<path d="M91.241 109.258L94.5365 109.253L89.5392 123.807L85.5762 123.813L80.5379 109.276L83.8334 109.27L87.4954 120.486L87.609 120.486L91.241 109.258ZM91.4565 114.975L83.6724 114.988L83.6684 112.588L91.4525 112.575L91.4565 114.975Z" fill="#AEF9A1"/>
<path d="M94.0021 103.035C94.0021 103.035 91.4893 104.595 90.1651 105.924C88.8409 107.252 87.2886 109.77 87.2886 109.77C87.2886 109.77 85.7326 107.26 84.4064 105.939C83.0803 104.617 80.5652 103.069 80.5652 103.069C80.5652 103.069 83.078 101.509 84.4022 100.18C85.7264 98.8513 87.2787 96.3334 87.2787 96.3334C87.2787 96.3334 88.8347 98.8433 90.1609 100.165C91.487 101.487 94.0021 103.035 94.0021 103.035Z" fill="#AEF9A1"/>
<path d="M40.3768 77.4204C40.3768 77.4204 45.2438 72.0731 49.8033 67.5136C54.3628 62.9541 59.7101 54.3044 59.7101 54.3044C59.7101 54.3044 65.0575 62.9541 69.617 67.5136C74.1765 72.0731 79.4637 77.4204 79.4637 77.4204C79.4637 77.4204 74.1765 82.7677 69.617 87.3272C65.0575 91.8867 59.7101 100.536 59.7101 100.536C59.7101 100.536 54.3628 91.8867 49.8033 87.3272C45.2438 82.7677 40.3768 77.4204 40.3768 77.4204Z" fill="#AEF9A1"/>
<rect x="62.5" y="0.500122" width="87.2609" height="115" rx="4.5" fill="#1A1A1A" stroke="#AEF9A1"/>
<path d="M75.0177 25.7247H71.7223L76.7436 11.1793H80.7066L85.7208 25.7247H82.4254L78.7819 14.5031H78.6683L75.0177 25.7247ZM74.8117 20.0074H82.5958V22.408H74.8117V20.0074Z" fill="#AEF9A1"/>
<path d="M137.241 90.2582L140.536 90.2528L135.539 104.807L131.576 104.813L126.538 90.2759L129.833 90.2705L133.495 101.486L133.609 101.486L137.241 90.2582ZM137.456 95.9752L129.672 95.9881L129.668 93.5875L137.452 93.5746L137.456 95.9752Z" fill="#AEF9A1"/>
<circle cx="75" cy="30.0001" r="3" fill="#AEF9A1"/>
<circle cx="81" cy="30.0001" r="3" fill="#AEF9A1"/>
<path d="M78 39.0001C78 39.0001 76.935 36.6634 76 35.4001C74.9873 34.0318 73 32.4001 73 32.4001L78 30.0001L83 32.4001C83 32.4001 81.0127 34.0318 80 35.4001C79.065 36.6634 78 39.0001 78 39.0001Z" fill="#AEF9A1"/>
<circle cx="136" cy="86.0001" r="3" transform="rotate(-180 136 86.0001)" fill="#AEF9A1"/>
<circle cx="130" cy="86.0001" r="3" transform="rotate(-180 130 86.0001)" fill="#AEF9A1"/>
<path d="M133 77.0001C133 77.0001 134.065 79.3368 135 80.6001C136.013 81.9684 138 83.6001 138 83.6001L133 86.0001L128 83.6001C128 83.6001 129.987 81.9684 131 80.6001C131.935 79.3368 133 77.0001 133 77.0001Z" fill="#AEF9A1"/>
<circle cx="95.5" cy="51.5001" r="10.5" fill="#AEF9A1"/>
<circle cx="116.5" cy="51.5001" r="10.5" fill="#AEF9A1"/>
<path d="M106 83.0001C106 83.0001 102.273 74.8217 99 70.4001C95.4554 65.6111 89.5 60.0001 89.5 60.0001L106 51.5001L122.5 60.0001C122.5 60.0001 116.545 65.6111 113 70.4001C109.727 74.8217 106 83.0001 106 83.0001Z" fill="#AEF9A1"/>
<path d="M144.092 111.091C144.092 112.433 143.476 113.75 142.283 114.991C141.087 116.234 139.334 117.377 137.128 118.347C132.718 120.287 126.591 121.5 119.796 121.5C113.001 121.5 106.874 120.287 102.464 118.347C100.258 117.377 98.5045 116.234 97.309 114.991C96.116 113.75 95.5 112.433 95.5 111.091C95.5 109.749 96.116 108.432 97.309 107.191C98.5045 105.948 100.258 104.805 102.464 103.835C106.874 101.895 113.001 100.682 119.796 100.682C126.591 100.682 132.718 101.895 137.128 103.835C139.334 104.805 141.087 105.948 142.283 107.191C143.476 108.432 144.092 109.749 144.092 111.091Z" fill="#1A1A1A" stroke="#AEF9A1"/>
<mask id="path-20-inside-1_62_120" fill="#AEF9A1">
<path d="M95 102.52H144.592V111.87H95V102.52Z"/>
</mask>
<path d="M95 102.52H144.592V111.87H95V102.52Z" fill="#1A1A1A"/>
<path d="M143.592 102.52V111.87H145.592V102.52H143.592ZM96 111.87V102.52H94V111.87H96Z" fill="#AEF9A1" mask="url(#path-20-inside-1_62_120)"/>
<path d="M144.092 101.74C144.092 103.082 143.476 104.399 142.283 105.64C141.087 106.884 139.334 108.026 137.128 108.997C132.718 110.937 126.591 112.15 119.796 112.15C113.001 112.15 106.874 110.937 102.464 108.997C100.258 108.026 98.5045 106.884 97.309 105.64C96.116 104.399 95.5 103.082 95.5 101.74C95.5 100.399 96.116 99.0816 97.309 97.8406C98.5045 96.5972 100.258 95.4546 102.464 94.4842C106.874 92.544 113.001 91.3313 119.796 91.3313C126.591 91.3313 132.718 92.544 137.128 94.4842C139.334 95.4546 141.087 96.5972 142.283 97.8406C143.476 99.0816 144.092 100.399 144.092 101.74Z" fill="#1A1A1A" stroke="#AEF9A1"/>
<mask id="path-23-inside-2_62_120" fill="#AEF9A1">
<path d="M95 93.1689H144.592V102.52H95V93.1689Z"/>
</mask>
<path d="M95 93.1689H144.592V102.52H95V93.1689Z" fill="#1A1A1A"/>
<path d="M143.592 93.1689V102.52H145.592V93.1689H143.592ZM96 102.52V93.1689H94V102.52H96Z" fill="#AEF9A1" mask="url(#path-23-inside-2_62_120)"/>
<path d="M144.092 92.3897C144.092 93.7315 143.476 95.0485 142.283 96.2895C141.087 97.5329 139.334 98.6755 137.128 99.646C132.718 101.586 126.591 102.799 119.796 102.799C113.001 102.799 106.874 101.586 102.464 99.646C100.258 98.6755 98.5045 97.5329 97.309 96.2895C96.116 95.0485 95.5 93.7315 95.5 92.3897C95.5 91.0479 96.116 89.7309 97.309 88.4899C98.5045 87.2465 100.258 86.1039 102.464 85.1335C106.874 83.1932 113.001 81.9806 119.796 81.9806C126.591 81.9806 132.718 83.1932 137.128 85.1335C139.334 86.1039 141.087 87.2465 142.283 88.4899C143.476 89.7309 144.092 91.0479 144.092 92.3897Z" fill="#1A1A1A" stroke="#AEF9A1"/>
<mask id="path-26-inside-3_62_120" fill="#AEF9A1">
<path d="M95 83.8182H144.592V93.1689H95V83.8182Z"/>
</mask>
<path d="M95 83.8182H144.592V93.1689H95V83.8182Z" fill="#1A1A1A"/>
<path d="M143.592 83.8182V93.1689H145.592V83.8182H143.592ZM96 93.1689V83.8182H94V93.1689H96Z" fill="#AEF9A1" mask="url(#path-26-inside-3_62_120)"/>
<path d="M144.092 83.039C144.092 84.3808 143.476 85.6978 142.283 86.9388C141.087 88.1822 139.334 89.3248 137.128 90.2952C132.718 92.2355 126.591 93.4481 119.796 93.4481C113.001 93.4481 106.874 92.2355 102.464 90.2952C100.258 89.3248 98.5045 88.1822 97.309 86.9388C96.116 85.6978 95.5 84.3808 95.5 83.039C95.5 81.6972 96.116 80.3802 97.309 79.1392C98.5045 77.8958 100.258 76.7532 102.464 75.7828C106.874 73.8425 113.001 72.6299 119.796 72.6299C126.591 72.6299 132.718 73.8425 137.128 75.7828C139.334 76.7532 141.087 77.8958 142.283 79.1392C143.476 80.3802 144.092 81.6972 144.092 83.039Z" fill="#1A1A1A" stroke="#AEF9A1"/>
<mask id="path-29-inside-4_62_120" fill="#AEF9A1">
<path d="M95 74.4675H144.592V83.8182H95V74.4675Z"/>
</mask>
<path d="M95 74.4675H144.592V83.8182H95V74.4675Z" fill="#1A1A1A"/>
<path d="M143.592 74.4675V83.8182H145.592V74.4675H143.592ZM96 83.8182V74.4675H94V83.8182H96Z" fill="#AEF9A1" mask="url(#path-29-inside-4_62_120)"/>
<ellipse cx="119.796" cy="73.2987" rx="24.796" ry="11.2987" fill="#AEF9A1"/>
<ellipse cx="119.796" cy="71.3507" rx="16.8368" ry="7.01301" fill="#1A1A1A"/>
<path d="M169.092 138.091C169.092 139.433 168.476 140.75 167.283 141.991C166.087 143.234 164.334 144.377 162.128 145.347C157.718 147.287 151.591 148.5 144.796 148.5C138.001 148.5 131.874 147.287 127.464 145.347C125.258 144.377 123.504 143.234 122.309 141.991C121.116 140.75 120.5 139.433 120.5 138.091C120.5 136.749 121.116 135.432 122.309 134.191C123.504 132.948 125.258 131.805 127.464 130.835C131.874 128.895 138.001 127.682 144.796 127.682C151.591 127.682 157.718 128.895 162.128 130.835C164.334 131.805 166.087 132.948 167.283 134.191C168.476 135.432 169.092 136.749 169.092 138.091Z" fill="#1A1A1A" stroke="#AEF9A1"/>
<mask id="path-34-inside-5_62_120" fill="#AEF9A1">
<path d="M120 129.52H169.592V138.87H120V129.52Z"/>
</mask>
<path d="M120 129.52H169.592V138.87H120V129.52Z" fill="#1A1A1A"/>
<path d="M168.592 129.52V138.87H170.592V129.52H168.592ZM121 138.87V129.52H119V138.87H121Z" fill="#AEF9A1" mask="url(#path-34-inside-5_62_120)"/>
<path d="M169.092 128.74C169.092 130.082 168.476 131.399 167.283 132.64C166.087 133.884 164.334 135.026 162.128 135.997C157.718 137.937 151.591 139.15 144.796 139.15C138.001 139.15 131.874 137.937 127.464 135.997C125.258 135.026 123.504 133.884 122.309 132.64C121.116 131.399 120.5 130.082 120.5 128.74C120.5 127.399 121.116 126.082 122.309 124.841C123.504 123.597 125.258 122.455 127.464 121.484C131.874 119.544 138.001 118.331 144.796 118.331C151.591 118.331 157.718 119.544 162.128 121.484C164.334 122.455 166.087 123.597 167.283 124.841C168.476 126.082 169.092 127.399 169.092 128.74Z" fill="#1A1A1A" stroke="#AEF9A1"/>
<mask id="path-37-inside-6_62_120" fill="#AEF9A1">
<path d="M120 120.169H169.592V129.52H120V120.169Z"/>
</mask>
<path d="M120 120.169H169.592V129.52H120V120.169Z" fill="#1A1A1A"/>
<path d="M168.592 120.169V129.52H170.592V120.169H168.592ZM121 129.52V120.169H119V129.52H121Z" fill="#AEF9A1" mask="url(#path-37-inside-6_62_120)"/>
<path d="M169.092 119.39C169.092 120.731 168.476 122.049 167.283 123.29C166.087 124.533 164.334 125.676 162.128 126.646C157.718 128.586 151.591 129.799 144.796 129.799C138.001 129.799 131.874 128.586 127.464 126.646C125.258 125.676 123.504 124.533 122.309 123.29C121.116 122.049 120.5 120.731 120.5 119.39C120.5 118.048 121.116 116.731 122.309 115.49C123.504 114.246 125.258 113.104 127.464 112.133C131.874 110.193 138.001 108.981 144.796 108.981C151.591 108.981 157.718 110.193 162.128 112.133C164.334 113.104 166.087 114.246 167.283 115.49C168.476 116.731 169.092 118.048 169.092 119.39Z" fill="#1A1A1A" stroke="#AEF9A1"/>
<mask id="path-40-inside-7_62_120" fill="#AEF9A1">
<path d="M120 110.818H169.592V120.169H120V110.818Z"/>
</mask>
<path d="M120 110.818H169.592V120.169H120V110.818Z" fill="#1A1A1A"/>
<path d="M168.592 110.818V120.169H170.592V110.818H168.592ZM121 120.169V110.818H119V120.169H121Z" fill="#AEF9A1" mask="url(#path-40-inside-7_62_120)"/>
<path d="M169.092 110.039C169.092 111.381 168.476 112.698 167.283 113.939C166.087 115.182 164.334 116.325 162.128 117.295C157.718 119.235 151.591 120.448 144.796 120.448C138.001 120.448 131.874 119.235 127.464 117.295C125.258 116.325 123.504 115.182 122.309 113.939C121.116 112.698 120.5 111.381 120.5 110.039C120.5 108.697 121.116 107.38 122.309 106.139C123.504 104.896 125.258 103.753 127.464 102.783C131.874 100.843 138.001 99.6299 144.796 99.6299C151.591 99.6299 157.718 100.843 162.128 102.783C164.334 103.753 166.087 104.896 167.283 106.139C168.476 107.38 169.092 108.697 169.092 110.039Z" fill="#1A1A1A" stroke="#AEF9A1"/>
<mask id="path-43-inside-8_62_120" fill="#AEF9A1">
<path d="M120 101.468H169.592V110.818H120V101.468Z"/>
</mask>
<path d="M120 101.468H169.592V110.818H120V101.468Z" fill="#1A1A1A"/>
<path d="M168.592 101.468V110.818H170.592V101.468H168.592ZM121 110.818V101.468H119V110.818H121Z" fill="#AEF9A1" mask="url(#path-43-inside-8_62_120)"/>
<ellipse cx="144.796" cy="100.299" rx="24.796" ry="11.2987" fill="#AEF9A1"/>
<ellipse cx="144.796" cy="98.3507" rx="16.8368" ry="7.01301" fill="#1A1A1A"/>
<path d="M133.092 154.091C133.092 155.433 132.476 156.75 131.283 157.991C130.087 159.234 128.334 160.377 126.128 161.347C121.718 163.287 115.591 164.5 108.796 164.5C102.001 164.5 95.874 163.287 91.4639 161.347C89.2582 160.377 87.5045 159.234 86.309 157.991C85.116 156.75 84.5 155.433 84.5 154.091C84.5 152.749 85.116 151.432 86.309 150.191C87.5045 148.948 89.2582 147.805 91.4639 146.835C95.874 144.895 102.001 143.682 108.796 143.682C115.591 143.682 121.718 144.895 126.128 146.835C128.334 147.805 130.087 148.948 131.283 150.191C132.476 151.432 133.092 152.749 133.092 154.091Z" fill="#1A1A1A" stroke="#AEF9A1"/>
<mask id="path-48-inside-9_62_120" fill="#AEF9A1">
<path d="M84 145.52H133.592V154.87H84V145.52Z"/>
</mask>
<path d="M84 145.52H133.592V154.87H84V145.52Z" fill="#1A1A1A"/>
<path d="M132.592 145.52V154.87H134.592V145.52H132.592ZM85 154.87V145.52H83V154.87H85Z" fill="#AEF9A1" mask="url(#path-48-inside-9_62_120)"/>
<path d="M133.092 144.74C133.092 146.082 132.476 147.399 131.283 148.64C130.087 149.884 128.334 151.026 126.128 151.997C121.718 153.937 115.591 155.15 108.796 155.15C102.001 155.15 95.874 153.937 91.4639 151.997C89.2582 151.026 87.5045 149.884 86.309 148.64C85.116 147.399 84.5 146.082 84.5 144.74C84.5 143.399 85.116 142.082 86.309 140.841C87.5045 139.597 89.2582 138.455 91.4639 137.484C95.874 135.544 102.001 134.331 108.796 134.331C115.591 134.331 121.718 135.544 126.128 137.484C128.334 138.455 130.087 139.597 131.283 140.841C132.476 142.082 133.092 143.399 133.092 144.74Z" fill="#1A1A1A" stroke="#AEF9A1"/>
<mask id="path-51-inside-10_62_120" fill="#AEF9A1">
<path d="M84 136.169H133.592V145.52H84V136.169Z"/>
</mask>
<path d="M84 136.169H133.592V145.52H84V136.169Z" fill="#1A1A1A"/>
<path d="M132.592 136.169V145.52H134.592V136.169H132.592ZM85 145.52V136.169H83V145.52H85Z" fill="#AEF9A1" mask="url(#path-51-inside-10_62_120)"/>
<path d="M133.092 135.39C133.092 136.731 132.476 138.049 131.283 139.29C130.087 140.533 128.334 141.676 126.128 142.646C121.718 144.586 115.591 145.799 108.796 145.799C102.001 145.799 95.874 144.586 91.4639 142.646C89.2582 141.676 87.5045 140.533 86.309 139.29C85.116 138.049 84.5 136.731 84.5 135.39C84.5 134.048 85.116 132.731 86.309 131.49C87.5045 130.246 89.2582 129.104 91.4639 128.133C95.874 126.193 102.001 124.981 108.796 124.981C115.591 124.981 121.718 126.193 126.128 128.133C128.334 129.104 130.087 130.246 131.283 131.49C132.476 132.731 133.092 134.048 133.092 135.39Z" fill="#1A1A1A" stroke="#AEF9A1"/>
<mask id="path-54-inside-11_62_120" fill="#AEF9A1">
<path d="M84 126.818H133.592V136.169H84V126.818Z"/>
</mask>
<path d="M84 126.818H133.592V136.169H84V126.818Z" fill="#1A1A1A"/>
<path d="M132.592 126.818V136.169H134.592V126.818H132.592ZM85 136.169V126.818H83V136.169H85Z" fill="#AEF9A1" mask="url(#path-54-inside-11_62_120)"/>
<path d="M133.092 126.039C133.092 127.381 132.476 128.698 131.283 129.939C130.087 131.182 128.334 132.325 126.128 133.295C121.718 135.235 115.591 136.448 108.796 136.448C102.001 136.448 95.874 135.235 91.4639 133.295C89.2582 132.325 87.5045 131.182 86.309 129.939C85.116 128.698 84.5 127.381 84.5 126.039C84.5 124.697 85.116 123.38 86.309 122.139C87.5045 120.896 89.2582 119.753 91.4639 118.783C95.874 116.843 102.001 115.63 108.796 115.63C115.591 115.63 121.718 116.843 126.128 118.783C128.334 119.753 130.087 120.896 131.283 122.139C132.476 123.38 133.092 124.697 133.092 126.039Z" fill="#1A1A1A" stroke="#AEF9A1"/>
<mask id="path-57-inside-12_62_120" fill="#AEF9A1">
<path d="M84 117.468H133.592V126.818H84V117.468Z"/>
</mask>
<path d="M84 117.468H133.592V126.818H84V117.468Z" fill="#1A1A1A"/>
<path d="M132.592 117.468V126.818H134.592V117.468H132.592ZM85 126.818V117.468H83V126.818H85Z" fill="#AEF9A1" mask="url(#path-57-inside-12_62_120)"/>
<ellipse cx="108.796" cy="116.299" rx="24.796" ry="11.2987" fill="#AEF9A1"/>
<ellipse cx="108.796" cy="114.351" rx="16.8368" ry="7.01301" fill="#1A1A1A"/>
<rect x="0.5" y="96.5" width="46.7273" height="46.7273" rx="9.5" fill="#1A1A1A" stroke="#AEF9A1"/>
<circle cx="16.1538" cy="109.217" r="4.40559" fill="#AEF9A1"/>
<circle cx="16.1538" cy="120.231" r="4.40559" fill="#AEF9A1"/>
<circle cx="16.1538" cy="131.245" r="4.40559" fill="#AEF9A1"/>
<circle cx="32.3077" cy="109.217" r="4.40559" fill="#AEF9A1"/>
<circle cx="32.3077" cy="120.231" r="4.40559" fill="#AEF9A1"/>
<circle cx="32.3077" cy="131.245" r="4.40559" fill="#AEF9A1"/>
<rect x="48.2273" y="111.773" width="46.7273" height="46.7273" rx="9.5" fill="#1A1A1A" stroke="#AEF9A1"/>
<circle cx="63.8811" cy="126.399" r="4.40559" fill="#AEF9A1"/>
<circle cx="63.8811" cy="144.755" r="4.40559" fill="#AEF9A1"/>
<circle cx="80.035" cy="126.399" r="4.40559" fill="#AEF9A1"/>
<circle cx="80.035" cy="144.755" r="4.40559" fill="#AEF9A1"/>
</svg>
