<svg width="129" height="88" viewBox="0 0 129 88" fill="none" xmlns="http://www.w3.org/2000/svg">
<path d="M99.5018 52.5672C105.332 58.3976 109.808 64.4497 112.337 69.5083C113.603 72.0401 114.368 74.2971 114.586 76.1373C114.805 77.9847 114.465 79.3228 113.644 80.1444C112.822 80.9659 111.484 81.3057 109.637 81.0867C107.797 80.8686 105.54 80.1034 103.008 78.8375C97.9493 76.3082 91.8972 71.8327 86.0668 66.0022C80.2363 60.1718 75.7608 54.1197 73.2315 49.0611C71.9656 46.5293 71.2003 44.2723 70.9823 42.4321C70.7633 40.5847 71.1031 39.2466 71.9246 38.4251C72.7462 37.6035 74.0843 37.2638 75.9316 37.4827C77.7719 37.7008 80.0289 38.466 82.5607 39.7319C87.6193 42.2612 93.6713 46.7368 99.5018 52.5672Z" fill="#1A1A1A" stroke="#FF8BC7"/>
<mask id="path-2-inside-1_111_161" fill="#FF8BC7">
<path d="M71.5 38.0713L78.5711 31.0002L120.997 73.4266L113.926 80.4977L71.5 38.0713Z"/>
</mask>
<path d="M71.5 38.0713L78.5711 31.0002L120.997 73.4266L113.926 80.4977L71.5 38.0713Z" fill="#1A1A1A"/>
<path d="M72.2071 38.7784L79.2782 31.7073L77.864 30.2931L70.7929 37.3642L72.2071 38.7784ZM120.29 72.7195L113.219 79.7906L114.634 81.2048L121.705 74.1337L120.29 72.7195Z" fill="#FF8BC7" mask="url(#path-2-inside-1_111_161)"/>
<path d="M106.717 45.282C112.548 51.1125 117.023 57.1645 119.553 62.2232C120.819 64.7549 121.584 67.012 121.802 68.8522C122.021 70.6996 121.681 72.0377 120.86 72.8592C120.038 73.6808 118.7 74.0205 116.853 73.8016C115.012 73.5835 112.755 72.8182 110.224 71.5523C105.165 69.023 99.1129 64.5475 93.2825 58.7171C87.452 52.8866 82.9765 46.8346 80.4472 41.776C79.1813 39.2442 78.416 36.9872 78.198 35.1469C77.979 33.2996 78.3188 31.9615 79.1403 31.1399C79.9619 30.3184 81.3 29.9786 83.1473 30.1975C84.9876 30.4156 87.2446 31.1809 89.7764 32.4468C94.835 34.9761 100.887 39.4516 106.717 45.282Z" fill="#FF8BC7" stroke="#FF8BC7"/>
<ellipse cx="100.665" cy="50.6656" rx="6.95267" ry="20.858" transform="rotate(-45 100.665 50.6656)" fill="black"/>
<path d="M88.2892 37.3436C88.2892 37.3436 90.3357 38.3496 91.8338 39.4558C93.2875 40.5292 95.6279 42.7329 95.6279 42.7329L93.6784 44.6823C93.6784 44.6823 91.4747 42.3419 90.4014 40.8883C89.2951 39.3901 88.2892 37.3436 88.2892 37.3436Z" fill="#FF8BC7"/>
<path d="M94.5777 50.2813C94.5777 50.2813 93.8086 48.3858 93.9134 47.6604C94.0152 46.9565 95.038 46.6747 95.038 46.6747L101.023 53.6864C101.023 53.6864 99.5804 53.4765 98.3112 52.8126C97.0031 52.1284 94.5777 50.2813 94.5777 50.2813Z" fill="#FF8BC7"/>
<path d="M88.8313 42.3883C88.8313 42.3883 89.4953 41.6874 90.4336 41.8366C91.3441 41.9815 93.3915 43.0665 93.3915 43.0665L96.3149 48.9423C96.3149 48.9423 94.0625 47.4453 92.5818 46.1542C91.0557 44.8237 88.8313 42.3883 88.8313 42.3883Z" fill="#FF8BC7"/>
<path d="M87.6353 36.5812C87.6353 36.5812 88.6413 38.6277 89.7475 40.1258C90.8208 41.5795 93.0246 43.9199 93.0246 43.9199L94.974 41.9704C94.974 41.9704 92.6336 39.7667 91.18 38.6934C89.6818 37.5871 87.6353 36.5812 87.6353 36.5812Z" fill="#FF8BC7"/>
<path d="M100.573 42.8699C100.573 42.8699 98.6779 42.1007 97.9524 42.2055C97.2485 42.3073 96.9667 43.3301 96.9667 43.3301L103.978 49.315C103.978 49.315 103.769 47.8725 103.105 46.6033C102.42 45.2952 100.573 42.8699 100.573 42.8699Z" fill="#FF8BC7"/>
<path d="M92.68 37.1233C92.68 37.1233 91.9791 37.7873 92.1284 38.7256C92.2732 39.636 93.3582 41.6835 93.3582 41.6835L99.234 44.6069C99.234 44.6069 97.737 42.3545 96.446 40.8738C95.1154 39.3477 92.68 37.1233 92.68 37.1233Z" fill="#FF8BC7"/>
<path d="M114.141 63.1952C114.141 63.1952 113.135 61.1487 112.029 59.6505C110.956 58.1969 108.752 55.8565 108.752 55.8565L106.803 57.806C106.803 57.806 109.143 60.0097 110.597 61.083C112.095 62.1892 114.141 63.1952 114.141 63.1952Z" fill="#FF8BC7"/>
<path d="M101.203 56.9065C101.203 56.9065 103.099 57.6757 103.824 57.5708C104.528 57.4691 104.81 56.4462 104.81 56.4462L97.7981 50.4613C97.7981 50.4613 98.008 51.9038 98.6719 53.1731C99.3561 54.4812 101.203 56.9065 101.203 56.9065Z" fill="#FF8BC7"/>
<path d="M109.097 62.6531C109.097 62.6531 109.797 61.9891 109.648 61.0508C109.503 60.1403 108.418 58.0929 108.418 58.0929L102.543 55.1695C102.543 55.1695 104.04 57.4219 105.331 58.9026C106.661 60.4287 109.097 62.6531 109.097 62.6531Z" fill="#FF8BC7"/>
<path d="M114.194 63.1407C114.194 63.1407 112.148 62.1348 110.65 61.0286C109.196 59.9552 106.856 57.7515 106.856 57.7515L108.805 55.8021C108.805 55.8021 111.009 58.1425 112.082 59.5961C113.188 61.0942 114.194 63.1407 114.194 63.1407Z" fill="#FF8BC7"/>
<path d="M107.906 50.2031C107.906 50.2031 108.675 52.0986 108.57 52.824C108.468 53.5279 107.445 53.8097 107.445 53.8097L101.461 46.798C101.461 46.798 102.903 47.0079 104.172 47.6717C105.48 48.356 107.906 50.2031 107.906 50.2031Z" fill="#FF8BC7"/>
<path d="M113.652 58.0961C113.652 58.0961 112.988 58.797 112.05 58.6477C111.139 58.5029 109.092 57.4179 109.092 57.4179L106.169 51.5421C106.169 51.5421 108.421 53.0391 109.902 54.3301C111.428 55.6607 113.652 58.0961 113.652 58.0961Z" fill="#FF8BC7"/>
<path d="M90.9303 40.0261C90.9303 40.0261 92.4972 40.7964 93.6443 41.6434C94.7573 42.4652 96.5493 44.1525 96.5493 44.1525L95.0567 45.6452C95.0567 45.6452 93.3693 43.8532 92.5475 42.7402C91.7005 41.5931 90.9303 40.0261 90.9303 40.0261Z" fill="#1A1A1A"/>
<path d="M95.7458 49.9329C95.7458 49.9329 95.1568 48.4816 95.2371 47.9261C95.315 47.3872 96.0982 47.1714 96.0982 47.1714L100.681 52.5401C100.681 52.5401 99.5762 52.3794 98.6043 51.8711C97.6028 51.3472 95.7458 49.9329 95.7458 49.9329Z" fill="#1A1A1A"/>
<path d="M91.3458 43.8892C91.3458 43.8892 91.8542 43.3525 92.5727 43.4668C93.2698 43.5777 94.8374 44.4085 94.8374 44.4085L97.0758 48.9074C97.0758 48.9074 95.3512 47.7612 94.2174 46.7727C93.049 45.7539 91.3458 43.8892 91.3458 43.8892Z" fill="#1A1A1A"/>
<path d="M90.4306 39.4446C90.4306 39.4446 91.2009 41.0115 92.0479 42.1586C92.8697 43.2716 94.557 45.0636 94.557 45.0636L96.0496 43.5709C96.0496 43.5709 94.2577 41.8836 93.1447 41.0618C91.9976 40.2148 90.4306 39.4446 90.4306 39.4446Z" fill="#1A1A1A"/>
<path d="M100.337 44.2596C100.337 44.2596 98.8859 43.6706 98.3304 43.7509C97.7915 43.8288 97.5757 44.612 97.5757 44.612L102.944 49.1944C102.944 49.1944 102.784 48.0899 102.275 47.1181C101.751 46.1166 100.337 44.2596 100.337 44.2596Z" fill="#1A1A1A"/>
<path d="M94.2935 39.8603C94.2935 39.8603 93.7568 40.3687 93.8711 41.0872C93.982 41.7843 94.8128 43.352 94.8128 43.352L99.3117 45.5903C99.3117 45.5903 98.1655 43.8657 97.177 42.732C96.1582 41.5635 94.2935 39.8603 94.2935 39.8603Z" fill="#1A1A1A"/>
<path d="M110.725 59.8211C110.725 59.8211 109.955 58.2541 109.108 57.107C108.286 55.994 106.599 54.202 106.599 54.202L105.106 55.6947C105.106 55.6947 106.898 57.382 108.011 58.2038C109.158 59.0508 110.725 59.8211 110.725 59.8211Z" fill="#1A1A1A"/>
<path d="M100.819 55.0061C100.819 55.0061 102.27 55.595 102.825 55.5147C103.364 55.4368 103.58 54.6536 103.58 54.6536L98.2114 50.0712C98.2114 50.0712 98.3721 51.1757 98.8804 52.1475C99.4043 53.1491 100.819 55.0061 100.819 55.0061Z" fill="#1A1A1A"/>
<path d="M106.862 59.4053C106.862 59.4053 107.399 58.8969 107.285 58.1784C107.174 57.4813 106.343 55.9137 106.343 55.9137L101.844 53.6753C101.844 53.6753 102.99 55.3999 103.979 56.5337C104.998 57.7021 106.862 59.4053 106.862 59.4053Z" fill="#1A1A1A"/>
<path d="M110.766 59.7795C110.766 59.7795 109.199 59.0093 108.052 58.1623C106.939 57.3405 105.147 55.6531 105.147 55.6531L106.64 54.1605C106.64 54.1605 108.327 55.9525 109.149 57.0655C109.996 58.2126 110.766 59.7795 110.766 59.7795Z" fill="#1A1A1A"/>
<path d="M105.95 49.8728C105.95 49.8728 106.539 51.3241 106.459 51.8795C106.381 52.4185 105.598 52.6343 105.598 52.6343L101.016 47.2656C101.016 47.2656 102.12 47.4263 103.092 47.9346C104.093 48.4585 105.95 49.8728 105.95 49.8728Z" fill="#1A1A1A"/>
<path d="M110.35 55.9165C110.35 55.9165 109.842 56.4531 109.124 56.3388C108.426 56.2279 106.859 55.3972 106.859 55.3972L104.62 50.8982C104.62 50.8982 106.345 52.0445 107.479 53.033C108.647 54.0518 110.35 55.9165 110.35 55.9165Z" fill="#1A1A1A"/>
<path d="M93.653 42.5784C93.653 42.5784 94.8007 43.1425 95.6409 43.7629C96.4561 44.3649 97.7686 45.6007 97.7686 45.6007L96.6753 46.694C96.6753 46.694 95.4395 45.3815 94.8375 44.5663C94.2171 43.7261 93.653 42.5784 93.653 42.5784Z" fill="#FF8BC7"/>
<path d="M97.1804 49.8346C97.1804 49.8346 96.749 48.7716 96.8079 48.3648C96.8649 47.97 97.4386 47.812 97.4386 47.812L100.795 51.7443C100.795 51.7443 99.986 51.6266 99.2742 51.2543C98.5406 50.8706 97.1804 49.8346 97.1804 49.8346Z" fill="#FF8BC7"/>
<path d="M93.9578 45.409C93.9578 45.409 94.3302 45.0159 94.8565 45.0996C95.3671 45.1809 96.5153 45.7894 96.5153 45.7894L98.1548 49.0846C98.1548 49.0846 96.8916 48.2451 96.0612 47.521C95.2053 46.7748 93.9578 45.409 93.9578 45.409Z" fill="#FF8BC7"/>
<path d="M93.2872 42.1521C93.2872 42.1521 93.8514 43.2998 94.4718 44.14C95.0737 44.9552 96.3096 46.2678 96.3096 46.2678L97.4029 45.1745C97.4029 45.1745 96.0903 43.9386 95.2751 43.3367C94.4349 42.7163 93.2872 42.1521 93.2872 42.1521Z" fill="#FF8BC7"/>
<path d="M100.544 45.6792C100.544 45.6792 99.4805 45.2478 99.0737 45.3066C98.6789 45.3637 98.5209 45.9373 98.5209 45.9373L102.453 49.2938C102.453 49.2938 102.335 48.4848 101.963 47.773C101.579 47.0394 100.544 45.6792 100.544 45.6792Z" fill="#FF8BC7"/>
<path d="M96.117 42.4566C96.117 42.4566 95.7239 42.829 95.8076 43.3552C95.8888 43.8658 96.4973 45.0141 96.4973 45.0141L99.7926 46.6536C99.7926 46.6536 98.953 45.3904 98.229 44.56C97.4828 43.7041 96.117 42.4566 96.117 42.4566Z" fill="#FF8BC7"/>
<path d="M108.152 57.0784C108.152 57.0784 107.588 55.9306 106.968 55.0904C106.366 54.2752 105.13 52.9627 105.13 52.9627L104.037 54.056C104.037 54.056 105.349 55.2919 106.165 55.8938C107.005 56.5142 108.152 57.0784 108.152 57.0784Z" fill="#FF8BC7"/>
<path d="M100.897 53.5513C100.897 53.5513 101.96 53.9826 102.366 53.9238C102.761 53.8668 102.919 53.2931 102.919 53.2931L98.9869 49.9367C98.9869 49.9367 99.1046 50.7457 99.4769 51.4575C99.8607 52.1911 100.897 53.5513 100.897 53.5513Z" fill="#FF8BC7"/>
<path d="M105.323 56.7739C105.323 56.7739 105.716 56.4015 105.632 55.8752C105.551 55.3646 104.942 54.2164 104.942 54.2164L101.647 52.5769C101.647 52.5769 102.487 53.8401 103.211 54.6705C103.957 55.5264 105.323 56.7739 105.323 56.7739Z" fill="#FF8BC7"/>
<path d="M108.183 57.0476C108.183 57.0476 107.035 56.4835 106.195 55.8631C105.379 55.2611 104.067 54.0252 104.067 54.0252L105.16 52.932C105.16 52.932 106.396 54.2445 106.998 55.0597C107.618 55.8999 108.183 57.0476 108.183 57.0476Z" fill="#FF8BC7"/>
<path d="M104.656 49.7913C104.656 49.7913 105.087 50.8543 105.028 51.2612C104.971 51.6559 104.397 51.814 104.397 51.814L101.041 47.8817C101.041 47.8817 101.85 47.9994 102.562 48.3717C103.295 48.7554 104.656 49.7913 104.656 49.7913Z" fill="#FF8BC7"/>
<path d="M107.878 54.2179C107.878 54.2179 107.505 54.611 106.979 54.5273C106.469 54.4461 105.32 53.8376 105.32 53.8376L103.681 50.5423C103.681 50.5423 104.944 51.3819 105.775 52.1059C106.63 52.8521 107.878 54.2179 107.878 54.2179Z" fill="#FF8BC7"/>
<path d="M95.0579 43.9407C95.0579 43.9407 95.9842 44.396 96.6622 44.8966C97.3201 45.3824 98.3794 46.3798 98.3794 46.3798L97.4971 47.2621C97.4971 47.2621 96.4997 46.2029 96.0139 45.545C95.5132 44.8669 95.0579 43.9407 95.0579 43.9407Z" fill="#1A1A1A"/>
<path d="M97.9038 49.7961C97.9038 49.7961 97.5557 48.9382 97.6031 48.6099C97.6492 48.2913 98.1121 48.1638 98.1121 48.1638L100.821 51.3372C100.821 51.3372 100.168 51.2422 99.5935 50.9418C99.0015 50.6321 97.9038 49.7961 97.9038 49.7961Z" fill="#1A1A1A"/>
<path d="M95.303 46.2231C95.303 46.2231 95.6036 45.9058 96.0283 45.9734C96.4403 46.0389 97.367 46.53 97.367 46.53L98.6901 49.1894C98.6901 49.1894 97.6707 48.5118 97.0005 47.9275C96.3098 47.3253 95.303 46.2231 95.303 46.2231Z" fill="#1A1A1A"/>
<path d="M94.7631 43.5974C94.7631 43.5974 95.2184 44.5236 95.719 45.2017C96.2048 45.8596 97.2022 46.9189 97.2022 46.9189L98.0845 46.0365C98.0845 46.0365 97.0253 45.0392 96.3674 44.5534C95.6893 44.0527 94.7631 43.5974 94.7631 43.5974Z" fill="#1A1A1A"/>
<path d="M100.618 46.4435C100.618 46.4435 99.7605 46.0954 99.4322 46.1428C99.1136 46.1889 98.9861 46.6518 98.9861 46.6518L102.16 49.3605C102.16 49.3605 102.065 48.7077 101.764 48.1332C101.454 47.5412 100.618 46.4435 100.618 46.4435Z" fill="#1A1A1A"/>
<path d="M97.0462 43.8433C97.0462 43.8433 96.729 44.1439 96.7966 44.5685C96.8621 44.9806 97.3532 45.9073 97.3532 45.9073L100.013 47.2304C100.013 47.2304 99.335 46.2109 98.7507 45.5408C98.1485 44.8501 97.0462 43.8433 97.0462 43.8433Z" fill="#1A1A1A"/>
<path d="M106.759 55.6419C106.759 55.6419 106.304 54.7156 105.803 54.0376C105.318 53.3797 104.32 52.3204 104.32 52.3204L103.438 53.2027C103.438 53.2027 104.497 54.2001 105.155 54.6859C105.833 55.1866 106.759 55.6419 106.759 55.6419Z" fill="#1A1A1A"/>
<path d="M100.904 52.7958C100.904 52.7958 101.762 53.1439 102.09 53.0964C102.409 53.0504 102.536 52.5874 102.536 52.5874L99.3628 49.8787C99.3628 49.8787 99.4578 50.5316 99.7582 51.106C100.068 51.6981 100.904 52.7958 100.904 52.7958Z" fill="#1A1A1A"/>
<path d="M104.476 55.3959C104.476 55.3959 104.793 55.0954 104.726 54.6707C104.66 54.2587 104.169 53.332 104.169 53.332L101.51 52.0089C101.51 52.0089 102.187 53.0283 102.772 53.6985C103.374 54.3892 104.476 55.3959 104.476 55.3959Z" fill="#1A1A1A"/>
<path d="M106.784 55.6179C106.784 55.6179 105.857 55.1626 105.179 54.6619C104.522 54.1762 103.462 53.1788 103.462 53.1788L104.345 52.2965C104.345 52.2965 105.342 53.3557 105.828 54.0136C106.328 54.6917 106.784 55.6179 106.784 55.6179Z" fill="#1A1A1A"/>
<path d="M103.938 49.7625C103.938 49.7625 104.286 50.6204 104.238 50.9487C104.192 51.2673 103.729 51.3948 103.729 51.3948L101.021 48.2214C101.021 48.2214 101.674 48.3164 102.248 48.6168C102.84 48.9265 103.938 49.7625 103.938 49.7625Z" fill="#1A1A1A"/>
<path d="M106.539 53.3355C106.539 53.3355 106.238 53.6528 105.813 53.5852C105.401 53.5197 104.475 53.0286 104.475 53.0286L103.152 50.3692C103.152 50.3692 104.171 51.0468 104.841 51.6311C105.532 52.2333 106.539 53.3355 106.539 53.3355Z" fill="#1A1A1A"/>
<ellipse cx="100.817" cy="49.5645" rx="1.37467" ry="5" transform="rotate(-45 100.817 49.5645)" fill="#FF8BC7"/>
<path d="M28.8519 28.7824C34.6824 22.952 40.7344 18.4764 45.793 15.9471C48.3248 14.6812 50.5818 13.916 52.4221 13.6979C54.2694 13.479 55.6075 13.8187 56.4291 14.6403C57.2506 15.4618 57.5904 16.7999 57.3715 18.6473C57.1534 20.4875 56.3881 22.7445 55.1222 25.2763C52.5929 30.3349 48.1174 36.387 42.287 42.2174C36.4565 48.0479 30.4045 52.5234 25.3458 55.0527C22.8141 56.3186 20.5571 57.0838 18.7168 57.3019C16.8694 57.5209 15.5313 57.1811 14.7098 56.3596C13.8882 55.538 13.5485 54.1999 13.7674 52.3525C13.9855 50.5123 14.7508 48.2553 16.0167 45.7235C18.546 40.6649 23.0215 34.6128 28.8519 28.7824Z" fill="#1A1A1A" stroke="#AEF9A1"/>
<mask id="path-56-inside-2_111_161" fill="#AEF9A1">
<path d="M14.356 56.7842L7.28495 49.7131L49.7114 7.28671L56.7824 14.3578L14.356 56.7842Z"/>
</mask>
<path d="M14.356 56.7842L7.28495 49.7131L49.7114 7.28671L56.7824 14.3578L14.356 56.7842Z" fill="#1A1A1A"/>
<path d="M15.0631 56.0771L7.99206 49.006L6.57784 50.4202L13.6489 57.4913L15.0631 56.0771ZM49.0042 7.99381L56.0753 15.0649L57.4895 13.6507L50.4185 6.5796L49.0042 7.99381Z" fill="#AEF9A1" mask="url(#path-56-inside-2_111_161)"/>
<path d="M21.5668 21.5666C27.3972 15.7361 33.4493 11.2606 38.5079 8.7313C41.0397 7.46542 43.2967 6.70016 45.1369 6.48207C46.9843 6.26313 48.3224 6.60289 49.1439 7.42444C49.9655 8.24599 50.3052 9.58409 50.0863 11.4315C49.8682 13.2717 49.103 15.5287 47.8371 18.0605C45.3078 23.1191 40.8322 29.1712 35.0018 35.0016C29.1714 40.832 23.1193 45.3076 18.0607 47.8369C15.5289 49.1028 13.2719 49.868 11.4317 50.0861C9.58429 50.305 8.24619 49.9653 7.42464 49.1437C6.60309 48.3222 6.26333 46.9841 6.48227 45.1367C6.70036 43.2965 7.46561 41.0395 8.7315 38.5077C11.2608 33.4491 15.7363 27.397 21.5668 21.5666Z" fill="#AEF9A1" stroke="#AEF9A1"/>
<ellipse cx="26.9503" cy="27.619" rx="6.95267" ry="20.858" transform="rotate(-135 26.9503 27.619)" fill="black"/>
<line x1="14.2169" y1="39.2119" x2="30.1201" y2="23.3087" stroke="#AEF9A1" stroke-width="0.5" stroke-linecap="round"/>
<line x1="14.8892" y1="39.8847" x2="25.8661" y2="28.9078" stroke="#AEF9A1" stroke-width="0.5" stroke-linecap="round"/>
<line x1="0.25" y1="-0.25" x2="3.81533" y2="-0.25" transform="matrix(0.921926 -0.387367 -0.310832 0.950465 20.8712 33.8076)" stroke="#AEF9A1" stroke-width="0.5" stroke-linecap="round"/>
<line x1="0.25" y1="-0.25" x2="3.88444" y2="-0.25" transform="matrix(0.405296 -0.914186 0.957466 -0.288546 21.7656 31.8789)" stroke="#AEF9A1" stroke-width="0.5" stroke-linecap="round"/>
<line x1="0.25" y1="-0.25" x2="7.91836" y2="-0.25" transform="matrix(0.852324 -0.523015 -0.072353 0.997379 22.3933 31.3887)" stroke="#AEF9A1" stroke-width="0.5" stroke-linecap="round"/>
<path d="M32.1549 24.9898C31.129 25.5314 29.4898 26.7583 29.4898 26.7583C29.4898 26.7583 30.7238 26.6783 31.618 26.4234C33.3811 25.9207 36.5456 23.9615 36.5456 23.9615C36.5456 23.9615 34.0926 23.9669 32.1549 24.9898Z" fill="#1A1A1A" stroke="#AEF9A1" stroke-width="0.5"/>
<path d="M27.725 26.468C27.0157 27.239 26.11 28.5416 26.11 28.5416C26.11 28.5416 27.323 27.7259 28.0779 27.0964C29.5663 25.8551 31.5724 23.4204 31.5724 23.4204C31.5724 23.4204 29.0646 25.0118 27.725 26.468Z" fill="#1A1A1A" stroke="#AEF9A1" stroke-width="0.5"/>
<path d="M26.3981 30.9621C25.7004 31.2269 24.5279 31.9449 24.5279 31.9449C24.5279 31.9449 25.276 32.0926 25.8494 32.0389C26.9802 31.9331 29.1783 30.881 29.1783 30.881C29.1783 30.881 27.7158 30.4621 26.3981 30.9621Z" fill="#1A1A1A" stroke="#AEF9A1" stroke-width="0.5"/>
<path d="M26.294 32.2816C25.7646 32.1334 24.6532 32.2681 24.6532 32.2681C24.6532 32.2681 24.87 33.0336 25.1718 33.3859C25.7669 34.0805 27.6117 34.2411 27.6117 34.2411C27.6117 34.2411 27.2937 32.5615 26.294 32.2816Z" fill="#1A1A1A" stroke="#AEF9A1" stroke-width="0.5"/>
<path d="M24.3637 33.5293C23.8598 33.2777 22.7369 33.2745 22.7369 33.2745C22.7369 33.2745 22.841 34.2072 23.0895 34.6658C23.5794 35.5701 25.3873 36.0279 25.3873 36.0279C25.3873 36.0279 25.3155 34.0044 24.3637 33.5293Z" fill="#1A1A1A" stroke="#AEF9A1" stroke-width="0.5"/>
<path d="M22.6096 34.7294C22.6599 34.0356 22.3695 33.1624 22.3695 33.1624C22.3695 33.1624 21.7232 34.3692 21.4568 35.1154C20.9315 36.5866 21.0722 38.5389 21.0722 38.5389C21.0722 38.5389 22.5146 36.0399 22.6096 34.7294Z" fill="#1A1A1A" stroke="#AEF9A1" stroke-width="0.5"/>
<path d="M33.2889 17.8353C33.5882 16.919 33.6511 15.6474 33.6511 15.6474C33.6511 15.6474 32.6346 17.0536 32.1243 17.9678C31.1182 19.7702 30.5264 22.4429 30.5264 22.4429C30.5264 22.4429 32.7235 19.5658 33.2889 17.8353Z" fill="#1A1A1A" stroke="#AEF9A1" stroke-width="0.5"/>
<path d="M34.932 19.0582C35.8636 18.0136 37.1461 16.1892 37.1461 16.1892C37.1461 16.1892 35.6999 17.2002 34.7643 18.0174C32.9195 19.6287 30.2104 22.9748 30.2104 22.9748C30.2104 22.9748 33.1726 21.031 34.932 19.0582Z" fill="#1A1A1A" stroke="#AEF9A1" stroke-width="0.5"/>
<path d="M34.0995 22.438C34.8724 22.0541 36.2083 21.1596 36.2083 21.1596C36.2083 21.1596 35.4381 21.1769 34.8251 21.3426C33.6164 21.6694 31.1518 23.0778 31.1518 23.0778C31.1518 23.0778 32.6398 23.163 34.0995 22.438Z" fill="#1A1A1A" stroke="#AEF9A1" stroke-width="0.5"/>
<path d="M30.1129 20.488C29.8836 20.0684 29.2191 19.6311 29.2191 19.6311C29.2191 19.6311 29.0233 20.5042 29.0439 21.0098C29.0846 22.0067 30.0297 23.1148 30.0297 23.1148C30.0297 23.1148 30.5458 21.2803 30.1129 20.488Z" fill="#1A1A1A" stroke="#AEF9A1" stroke-width="0.5"/>
<path d="M28.6887 22.2864C28.4532 22.0205 27.877 21.7301 27.877 21.7301C27.877 21.7301 27.8443 22.2622 27.9295 22.5746C28.0976 23.1905 28.9836 23.9033 28.9836 23.9033C28.9836 23.9033 29.1336 22.7885 28.6887 22.2864Z" fill="#1A1A1A" stroke="#AEF9A1" stroke-width="0.5"/>
<path d="M22.4417 25.9811C22.1243 25.4621 21.2441 24.9162 21.2441 24.9162C21.2441 24.9162 21.0362 25.9882 21.0888 26.6106C21.1925 27.8378 22.4693 29.2125 22.4693 29.2125C22.4693 29.2125 23.0412 26.9612 22.4417 25.9811Z" fill="#1A1A1A" stroke="#AEF9A1" stroke-width="0.5"/>
<path d="M25.2238 25.5438C25.5519 24.7342 25.769 23.5297 25.769 23.5297C25.769 23.5297 24.8891 24.6441 24.4189 25.4031C23.4917 26.8997 22.7249 29.3258 22.7249 29.3258C22.7249 29.3258 24.6043 27.0728 25.2238 25.5438Z" fill="#1A1A1A" stroke="#AEF9A1" stroke-width="0.5"/>
<path d="M20.9993 29.3837C20.6729 29.0853 19.8838 28.8341 19.8838 28.8341C19.8838 28.8341 19.8533 29.5493 19.977 29.9447C20.2209 30.7243 21.4412 31.4645 21.4412 31.4645C21.4412 31.4645 21.6156 29.9471 20.9993 29.3837Z" fill="#1A1A1A" stroke="#AEF9A1" stroke-width="0.5"/>
<path d="M19.2813 30.9362C18.6824 30.984 17.5165 31.3332 17.5165 31.3332C17.5165 31.3332 17.9069 31.707 18.3035 31.8291C19.0856 32.0699 21.0998 31.7046 21.0998 31.7046C21.0998 31.7046 20.4126 30.8458 19.2813 30.9362Z" fill="#1A1A1A" stroke="#AEF9A1" stroke-width="0.5"/>
<path d="M33.8265 21.3643C34.9709 20.5764 37.0133 19.0111 37.0133 19.0111C37.0133 19.0111 35.9748 19.4743 35.1058 19.977C33.3923 20.9681 29.6916 23.6429 29.6916 23.6429C29.6916 23.6429 31.6651 22.8523 33.8265 21.3643Z" fill="#1A1A1A" stroke="#AEF9A1" stroke-width="0.5"/>
<path d="M31.069 27.3673C30.4293 27.1684 29.0842 27.33 29.0842 27.33C29.0842 27.33 29.3427 28.327 29.7062 28.7882C30.4228 29.6976 32.6537 29.9284 32.6537 29.9284C32.6537 29.9284 32.277 27.7429 31.069 27.3673Z" fill="#1A1A1A" stroke="#AEF9A1" stroke-width="0.5"/>
</svg>
