<svg width="151" height="147" viewBox="0 0 151 147" fill="none" xmlns="http://www.w3.org/2000/svg">
<path d="M149.5 73.5C149.5 113.227 116.407 145.5 75.5 145.5C34.5927 145.5 1.5 113.227 1.5 73.5C1.5 33.7732 34.5927 1.5 75.5 1.5C116.407 1.5 149.5 33.7732 149.5 73.5Z" stroke="#FCEEA1" stroke-width="3"/>
<path d="M66.5297 36.3746C66.5425 36.0947 66.5588 35.7316 66.5777 35.2995C66.6246 34.2238 66.6871 32.7202 66.7497 31.0089C66.8747 27.588 67 23.3305 67 20C67 16.6695 66.8747 12.412 66.7497 8.99107C66.6871 7.27975 66.6246 5.77622 66.5777 4.70046C66.5542 4.16257 66.5346 3.73158 66.521 3.435L66.5192 3.39772C66.7295 3.35353 67.0073 3.29788 67.3198 3.24227C68.0171 3.11819 68.856 3 69.5 3C70.144 3 70.9829 3.11819 71.6802 3.24227C71.9927 3.29788 72.2705 3.35353 72.4808 3.39772L72.479 3.435C72.4654 3.73158 72.4458 4.16257 72.4223 4.70046C72.3754 5.77622 72.3129 7.27975 72.2503 8.99107C72.1253 12.412 72 16.6695 72 20C72 23.3305 72.1253 27.588 72.2503 31.0089C72.3129 32.7202 72.3754 34.2238 72.4223 35.2995C72.4412 35.7316 72.4575 36.0947 72.4703 36.3746C72.2907 36.3383 72.0819 36.298 71.8554 36.2577C71.1478 36.1318 70.2367 36 69.5 36C68.7633 36 67.8522 36.1318 67.1446 36.2577C66.9181 36.298 66.7093 36.3383 66.5297 36.3746Z" fill="#1A1A1A" stroke="#FCEEA1"/>
<path d="M77.5297 36.3746C77.5425 36.095 77.5588 35.7323 77.5776 35.3008C77.6246 34.2257 77.6871 32.7229 77.7497 31.0122C77.8747 27.5923 78 23.3348 78 20C78 16.6652 77.8747 12.4077 77.7497 8.98783C77.6871 7.27705 77.6246 5.77432 77.5776 4.69924C77.5542 4.16168 77.5346 3.731 77.521 3.43463L77.5192 3.39772C77.7295 3.35353 78.0073 3.29788 78.3198 3.24227C79.0171 3.11819 79.856 3 80.5 3C81.144 3 81.9829 3.11819 82.6802 3.24227C82.9927 3.29788 83.2705 3.35353 83.4808 3.39772L83.479 3.43463C83.4654 3.731 83.4458 4.16168 83.4224 4.69924C83.3754 5.77432 83.3129 7.27705 83.2503 8.98783C83.1253 12.4077 83 16.6652 83 20C83 23.3348 83.1253 27.5923 83.2503 31.0122C83.3129 32.7229 83.3754 34.2257 83.4224 35.3008C83.4412 35.7323 83.4575 36.095 83.4703 36.3746C83.2906 36.3383 83.0819 36.298 82.8554 36.2577C82.1478 36.1318 81.2367 36 80.5 36C79.7633 36 78.8522 36.1318 78.1446 36.2577C77.9181 36.298 77.7094 36.3383 77.5297 36.3746Z" fill="#1A1A1A" stroke="#FCEEA1"/>
<mask id="path-4-inside-1_69_98" fill="#FCEEA1">
<path d="M77 37.5652C77 37.5652 79.1193 37 80.5 37C81.8807 37 84 37.5652 84 37.5652C84 37.5652 83.5 49.2648 83.5 56.7826C83.5 64.3004 84 76 84 76C84 76 81.8807 75.4348 80.5 75.4348C79.1193 75.4348 77 76 77 76C77 76 77.5 64.3004 77.5 56.7826C77.5 49.2648 77 37.5652 77 37.5652Z"/>
</mask>
<path d="M77 37.5652C77 37.5652 79.1193 37 80.5 37C81.8807 37 84 37.5652 84 37.5652C84 37.5652 83.5 49.2648 83.5 56.7826C83.5 64.3004 84 76 84 76C84 76 81.8807 75.4348 80.5 75.4348C79.1193 75.4348 77 76 77 76C77 76 77.5 64.3004 77.5 56.7826C77.5 49.2648 77 37.5652 77 37.5652Z" fill="#1A1A1A"/>
<path d="M77 37.5652L76.7423 36.599L75.9666 36.8059L76.0009 37.6079L77 37.5652ZM84 37.5652L84.9991 37.6079L85.0334 36.8059L84.2577 36.599L84 37.5652ZM84 76L83.7423 76.9662L85.0572 77.3169L84.9991 75.9573L84 76ZM77 76L76.0009 75.9573L75.9428 77.3169L77.2577 76.9662L77 76ZM84 37.5652C83.0009 37.5225 83.0009 37.5226 83.0009 37.5227C83.0009 37.5228 83.0009 37.5229 83.0009 37.5231C83.0009 37.5235 83.0008 37.524 83.0008 37.5248C83.0008 37.5262 83.0007 37.5284 83.0005 37.5312C83.0003 37.537 82.9999 37.5455 82.9995 37.5567C82.9985 37.5793 82.9971 37.6127 82.9953 37.6566C82.9916 37.7445 82.9862 37.8742 82.9793 38.0418C82.9656 38.3771 82.9461 38.8642 82.9226 39.4722C82.8757 40.688 82.8131 42.3876 82.7505 44.3224C82.6255 48.189 82.5 53.0067 82.5 56.7826H84.5C84.5 53.0406 84.6245 48.2496 84.7495 44.3871C84.8119 42.4573 84.8743 40.762 84.9211 39.5493C84.9445 38.943 84.964 38.4574 84.9777 38.1234C84.9845 37.9565 84.9899 37.8275 84.9935 37.7402C84.9953 37.6966 84.9967 37.6635 84.9977 37.6413C84.9981 37.6302 84.9985 37.6218 84.9987 37.6162C84.9989 37.6134 84.9989 37.6113 84.999 37.6099C84.999 37.6092 84.9991 37.6087 84.9991 37.6084C84.9991 37.6082 84.9991 37.6081 84.9991 37.608C84.9991 37.6079 84.9991 37.6079 84 37.5652ZM82.5 56.7826C82.5 60.5585 82.6255 65.3762 82.7505 69.2428C82.8131 71.1777 82.8757 72.8772 82.9226 74.0931C82.9461 74.701 82.9656 75.1882 82.9793 75.5234C82.9862 75.6911 82.9916 75.8207 82.9953 75.9086C82.9971 75.9525 82.9985 75.986 82.9995 76.0085C82.9999 76.0197 83.0003 76.0282 83.0005 76.034C83.0007 76.0368 83.0008 76.039 83.0008 76.0405C83.0008 76.0412 83.0009 76.0417 83.0009 76.0421C83.0009 76.0423 83.0009 76.0424 83.0009 76.0425C83.0009 76.0426 83.0009 76.0427 84 76C84.9991 75.9573 84.9991 75.9573 84.9991 75.9572C84.9991 75.9571 84.9991 75.957 84.9991 75.9568C84.9991 75.9565 84.999 75.956 84.999 75.9553C84.9989 75.9539 84.9989 75.9518 84.9987 75.949C84.9985 75.9434 84.9981 75.9351 84.9977 75.9239C84.9967 75.9017 84.9953 75.8686 84.9935 75.825C84.9899 75.7378 84.9845 75.6087 84.9777 75.4418C84.964 75.1079 84.9445 74.6222 84.9211 74.0159C84.8743 72.8032 84.8119 71.1079 84.7495 69.1782C84.6245 65.3156 84.5 60.5246 84.5 56.7826H82.5ZM77 76C77.9991 76.0427 77.9991 76.0426 77.9991 76.0425C77.9991 76.0424 77.9991 76.0423 77.9991 76.0421C77.9991 76.0417 77.9992 76.0412 77.9992 76.0405C77.9992 76.039 77.9993 76.0368 77.9995 76.034C77.9997 76.0282 78.0001 76.0197 78.0005 76.0085C78.0015 75.986 78.0029 75.9525 78.0047 75.9086C78.0084 75.8207 78.0138 75.6911 78.0207 75.5234C78.0344 75.1882 78.0539 74.701 78.0774 74.0931C78.1243 72.8772 78.1869 71.1777 78.2495 69.2428C78.3745 65.3762 78.5 60.5585 78.5 56.7826H76.5C76.5 60.5246 76.3755 65.3156 76.2505 69.1782C76.1881 71.1079 76.1257 72.8032 76.0789 74.0159C76.0555 74.6222 76.036 75.1079 76.0223 75.4418C76.0155 75.6087 76.0101 75.7378 76.0065 75.825C76.0047 75.8686 76.0033 75.9017 76.0023 75.9239C76.0019 75.9351 76.0015 75.9434 76.0013 75.949C76.0011 75.9518 76.0011 75.9539 76.001 75.9553C76.001 75.956 76.0009 75.9565 76.0009 75.9568C76.0009 75.957 76.0009 75.9571 76.0009 75.9572C76.0009 75.9573 76.0009 75.9573 77 76ZM78.5 56.7826C78.5 53.0067 78.3745 48.189 78.2495 44.3224C78.1869 42.3876 78.1243 40.688 78.0774 39.4722C78.0539 38.8642 78.0344 38.3771 78.0207 38.0418C78.0138 37.8742 78.0084 37.7445 78.0047 37.6566C78.0029 37.6127 78.0015 37.5793 78.0005 37.5567C78.0001 37.5455 77.9997 37.537 77.9995 37.5312C77.9993 37.5284 77.9992 37.5262 77.9992 37.5248C77.9992 37.524 77.9991 37.5235 77.9991 37.5231C77.9991 37.5229 77.9991 37.5228 77.9991 37.5227C77.9991 37.5226 77.9991 37.5225 77 37.5652C76.0009 37.6079 76.0009 37.6079 76.0009 37.608C76.0009 37.6081 76.0009 37.6082 76.0009 37.6084C76.0009 37.6087 76.001 37.6092 76.001 37.6099C76.0011 37.6113 76.0011 37.6134 76.0013 37.6162C76.0015 37.6218 76.0019 37.6302 76.0023 37.6413C76.0033 37.6635 76.0047 37.6966 76.0065 37.7402C76.0101 37.8275 76.0155 37.9565 76.0223 38.1234C76.036 38.4574 76.0555 38.943 76.0789 39.5493C76.1257 40.762 76.1881 42.4573 76.2505 44.3871C76.3755 48.2496 76.5 53.0406 76.5 56.7826H78.5ZM84 76C84.2577 75.0338 84.2576 75.0337 84.2575 75.0337C84.2575 75.0337 84.2574 75.0337 84.2573 75.0337C84.2571 75.0336 84.2569 75.0336 84.2567 75.0335C84.2562 75.0334 84.2556 75.0332 84.2549 75.033C84.2535 75.0327 84.2515 75.0321 84.2491 75.0315C84.2442 75.0302 84.2373 75.0284 84.2284 75.0261C84.2108 75.0215 84.1855 75.0149 84.1532 75.0067C84.0886 74.9902 83.9961 74.9671 83.8812 74.9394C83.6518 74.8842 83.3312 74.8107 82.965 74.737C82.2514 74.5935 81.2951 74.4348 80.5 74.4348V76.4348C81.0856 76.4348 81.8793 76.5587 82.5705 76.6977C82.9068 76.7654 83.2023 76.8332 83.4134 76.8839C83.5187 76.9093 83.6025 76.9303 83.6593 76.9447C83.6877 76.952 83.7092 76.9576 83.7233 76.9612C83.7303 76.9631 83.7355 76.9644 83.7387 76.9653C83.7403 76.9657 83.7414 76.966 83.742 76.9661C83.7423 76.9662 83.7425 76.9663 83.7425 76.9663C83.7426 76.9663 83.7426 76.9663 83.7425 76.9663C83.7425 76.9663 83.7424 76.9663 83.7424 76.9663C83.7424 76.9662 83.7423 76.9662 84 76ZM80.5 74.4348C79.7049 74.4348 78.7486 74.5935 78.035 74.737C77.6688 74.8107 77.3482 74.8842 77.1188 74.9394C77.0039 74.9671 76.9114 74.9902 76.8468 75.0067C76.8145 75.0149 76.7892 75.0215 76.7716 75.0261C76.7627 75.0284 76.7558 75.0302 76.7509 75.0315C76.7485 75.0321 76.7465 75.0327 76.7451 75.033C76.7444 75.0332 76.7438 75.0334 76.7433 75.0335C76.7431 75.0336 76.7429 75.0336 76.7427 75.0337C76.7426 75.0337 76.7425 75.0337 76.7425 75.0337C76.7424 75.0337 76.7423 75.0338 77 76C77.2577 76.9662 77.2576 76.9662 77.2576 76.9663C77.2576 76.9663 77.2575 76.9663 77.2575 76.9663C77.2574 76.9663 77.2574 76.9663 77.2575 76.9663C77.2575 76.9663 77.2577 76.9662 77.258 76.9661C77.2586 76.966 77.2597 76.9657 77.2613 76.9653C77.2645 76.9644 77.2697 76.9631 77.2767 76.9612C77.2908 76.9576 77.3123 76.952 77.3407 76.9447C77.3975 76.9303 77.4813 76.9093 77.5866 76.8839C77.7977 76.8332 78.0932 76.7654 78.4295 76.6977C79.1207 76.5587 79.9144 76.4348 80.5 76.4348V74.4348ZM77 37.5652C77.2577 38.5314 77.2576 38.5315 77.2576 38.5315C77.2576 38.5315 77.2575 38.5315 77.2575 38.5315C77.2574 38.5315 77.2574 38.5315 77.2575 38.5315C77.2575 38.5315 77.2577 38.5314 77.258 38.5314C77.2586 38.5312 77.2597 38.5309 77.2613 38.5305C77.2645 38.5296 77.2697 38.5283 77.2767 38.5264C77.2908 38.5228 77.3123 38.5172 77.3407 38.51C77.3975 38.4955 77.4813 38.4745 77.5866 38.4492C77.7977 38.3984 78.0932 38.3306 78.4295 38.263C79.1207 38.1239 79.9144 38 80.5 38V36C79.7049 36 78.7486 36.1587 78.035 36.3022C77.6688 36.3759 77.3482 36.4494 77.1188 36.5046C77.0039 36.5323 76.9114 36.5555 76.8468 36.5719C76.8145 36.5801 76.7892 36.5867 76.7716 36.5913C76.7627 36.5936 76.7558 36.5954 76.7509 36.5967C76.7485 36.5974 76.7465 36.5979 76.7451 36.5983C76.7444 36.5984 76.7438 36.5986 76.7433 36.5987C76.7431 36.5988 76.7429 36.5988 76.7427 36.5989C76.7426 36.5989 76.7425 36.5989 76.7425 36.5989C76.7424 36.599 76.7423 36.599 77 37.5652ZM80.5 38C81.0856 38 81.8793 38.1239 82.5705 38.263C82.9068 38.3306 83.2023 38.3984 83.4134 38.4492C83.5187 38.4745 83.6025 38.4955 83.6593 38.51C83.6877 38.5172 83.7092 38.5228 83.7233 38.5264C83.7303 38.5283 83.7355 38.5296 83.7387 38.5305C83.7403 38.5309 83.7414 38.5312 83.742 38.5314C83.7423 38.5314 83.7425 38.5315 83.7425 38.5315C83.7426 38.5315 83.7426 38.5315 83.7425 38.5315C83.7425 38.5315 83.7424 38.5315 83.7424 38.5315C83.7424 38.5315 83.7423 38.5314 84 37.5652C84.2577 36.599 84.2576 36.599 84.2575 36.5989C84.2575 36.5989 84.2574 36.5989 84.2573 36.5989C84.2571 36.5988 84.2569 36.5988 84.2567 36.5987C84.2562 36.5986 84.2556 36.5984 84.2549 36.5983C84.2535 36.5979 84.2515 36.5974 84.2491 36.5967C84.2442 36.5954 84.2373 36.5936 84.2284 36.5913C84.2108 36.5867 84.1855 36.5801 84.1532 36.5719C84.0886 36.5555 83.9961 36.5323 83.8812 36.5046C83.6518 36.4494 83.3312 36.3759 82.965 36.3022C82.2514 36.1587 81.2951 36 80.5 36V38Z" fill="#FCEEA1" mask="url(#path-4-inside-1_69_98)"/>
<path d="M72.4787 90.2978C72.3077 90.2442 72.1124 90.1857 71.9019 90.127C71.1931 89.9296 70.2627 89.7174 69.5 89.7174C68.7373 89.7174 67.8069 89.9296 67.0981 90.127C66.8876 90.1857 66.6923 90.2442 66.5213 90.2978C66.535 89.8343 66.5545 89.1608 66.5779 88.3201C66.6248 86.6382 66.6873 84.2872 66.7499 81.6108C66.8749 76.2591 67 69.6021 67 64.3913C67 59.1805 66.8749 52.5235 66.7499 47.1718C66.6873 44.4954 66.6248 42.1444 66.5779 40.4625C66.5545 39.6215 66.5349 38.9478 66.5213 38.4843L66.5108 38.1347C66.7252 38.0633 67.0251 37.968 67.3664 37.873C68.0624 37.6791 68.882 37.5 69.5 37.5C70.118 37.5 70.9376 37.6791 71.6336 37.873C71.9749 37.968 72.2748 38.0633 72.4892 38.1347L72.4787 38.4843C72.4651 38.9478 72.4455 39.6215 72.4221 40.4625C72.3752 42.1444 72.3127 44.4954 72.2501 47.1718C72.1251 52.5235 72 59.1805 72 64.3913C72 69.6021 72.1251 76.2591 72.2501 81.6108C72.3127 84.2872 72.3752 86.6382 72.4221 88.3201C72.4455 89.1608 72.465 89.8343 72.4787 90.2978Z" fill="#1A1A1A" stroke="#FCEEA1"/>
<path d="M72.4676 121.388C72.2867 121.355 72.0758 121.318 71.8467 121.282C71.1395 121.169 70.232 121.051 69.5 121.051C68.768 121.051 67.8605 121.169 67.1533 121.282C66.9242 121.318 66.7133 121.355 66.5324 121.388C66.5447 121.145 66.5601 120.838 66.5775 120.478C66.6245 119.512 66.687 118.161 66.7496 116.624C66.8746 113.55 67 109.723 67 106.725C67 103.726 66.8746 99.8989 66.7496 96.8257C66.687 95.2882 66.6245 93.9377 66.5775 92.9715C66.5547 92.5009 66.5355 92.1214 66.5219 91.8559C66.7309 91.8165 67.0044 91.7674 67.3112 91.7184C68.0088 91.6068 68.8513 91.5 69.5 91.5C70.1487 91.5 70.9912 91.6068 71.6888 91.7184C71.9956 91.7674 72.2691 91.8165 72.4781 91.8559C72.4645 92.1214 72.4453 92.5009 72.4225 92.9715C72.3755 93.9377 72.313 95.2882 72.2504 96.8257C72.1254 99.8989 72 103.726 72 106.725C72 109.723 72.1254 113.55 72.2504 116.624C72.313 118.161 72.3755 119.512 72.4225 120.478C72.4399 120.838 72.4553 121.145 72.4676 121.388Z" fill="#1A1A1A" stroke="#FCEEA1"/>
<path d="M83.4762 121.33C83.3014 121.283 83.1004 121.232 82.8832 121.18C82.1747 121.012 81.252 120.833 80.5 120.833C79.748 120.833 78.8253 121.012 78.1168 121.18C77.8996 121.232 77.6986 121.283 77.5238 121.33C77.5374 120.939 77.5559 120.393 77.5779 119.722C77.6248 118.289 77.6873 116.286 77.7498 114.006C77.8748 109.446 78 103.774 78 99.3333C78 94.8926 77.8748 89.2202 77.7498 84.6611C77.6873 82.3809 77.6248 80.378 77.5779 78.945C77.5544 78.2286 77.5349 77.6546 77.5212 77.2596L77.5134 77.0367C77.7265 76.9765 78.0177 76.8981 78.3477 76.8198C79.044 76.6546 79.8713 76.5 80.5 76.5C81.1287 76.5 81.956 76.6546 82.6523 76.8198C82.9823 76.8981 83.2735 76.9765 83.4866 77.0367L83.4788 77.2596C83.4651 77.6546 83.4456 78.2286 83.4221 78.945C83.3752 80.378 83.3127 82.3809 83.2502 84.6611C83.1252 89.2202 83 94.8926 83 99.3333C83 103.774 83.1252 109.446 83.2502 114.006C83.3127 116.286 83.3752 118.289 83.4221 119.722C83.4441 120.393 83.4626 120.939 83.4762 121.33Z" fill="#1A1A1A" stroke="#FCEEA1"/>
<path d="M83.4232 141.988C83.4348 142.15 83.4454 142.296 83.4549 142.424C83.2714 142.402 83.0561 142.376 82.8216 142.351C82.1157 142.274 81.2186 142.196 80.5 142.196C79.7814 142.196 78.8843 142.274 78.1784 142.351C77.9439 142.376 77.7286 142.402 77.5451 142.424C77.5546 142.296 77.5652 142.15 77.5768 141.988C77.6238 141.333 77.6865 140.417 77.7491 139.374C77.8742 137.291 78 134.692 78 132.652C78 130.612 77.8742 128.013 77.7491 125.93C77.6865 124.887 77.6238 123.971 77.5768 123.316C77.5607 123.091 77.5464 122.896 77.5345 122.738C77.7387 122.712 77.9977 122.68 78.2861 122.649C78.985 122.574 79.8379 122.5 80.5 122.5C81.1621 122.5 82.015 122.574 82.7139 122.649C83.0023 122.68 83.2613 122.712 83.4655 122.738C83.4536 122.896 83.4393 123.091 83.4232 123.316C83.3762 123.971 83.3135 124.887 83.2509 125.93C83.1258 128.013 83 130.612 83 132.652C83 134.692 83.1258 137.291 83.2509 139.374C83.3135 140.417 83.3762 141.333 83.4232 141.988Z" fill="#1A1A1A" stroke="#FCEEA1"/>
<path d="M72.4232 141.988C72.4348 142.15 72.4454 142.296 72.4549 142.424C72.2714 142.402 72.0561 142.376 71.8216 142.351C71.1157 142.274 70.2186 142.196 69.5 142.196C68.7814 142.196 67.8843 142.274 67.1784 142.351C66.9439 142.376 66.7286 142.402 66.5451 142.424C66.5546 142.296 66.5652 142.15 66.5768 141.988C66.6238 141.333 66.6865 140.417 66.7491 139.374C66.8742 137.291 67 134.692 67 132.652C67 130.612 66.8742 128.013 66.7491 125.93C66.6865 124.887 66.6238 123.971 66.5768 123.316C66.5607 123.091 66.5464 122.896 66.5345 122.738C66.7387 122.712 66.9977 122.68 67.2861 122.649C67.985 122.574 68.8379 122.5 69.5 122.5C70.1621 122.5 71.015 122.574 71.7139 122.649C72.0023 122.68 72.2613 122.712 72.4655 122.738C72.4536 122.896 72.4393 123.091 72.4232 123.316C72.3762 123.971 72.3135 124.887 72.2509 125.93C72.1258 128.013 72 130.612 72 132.652C72 134.692 72.1258 137.291 72.2509 139.374C72.3135 140.417 72.3762 141.333 72.4232 141.988Z" fill="#1A1A1A" stroke="#FCEEA1"/>
<line x1="86.0001" y1="96.5858" x2="110.586" y2="72" stroke="#FCEEA1" stroke-width="2" stroke-linecap="round"/>
<path d="M100.5 91C98.5106 90.9141 95.5 90 95.5 90C95.5 90 101.326 84.254 106 79.5C108.756 76.6964 110.587 75.6849 112 72.5C112.427 71.5389 113 70 113 70C113 70 111.15 70.55 110 71C107.234 72.0823 105.439 74.652 103 77C97.5019 82.2928 92.5 88.5 92.5 88.5C92.5 88.5 91.7453 86.4002 91.5 85C91.0957 82.692 90.9988 81.2889 91.5 79C92.2881 75.4011 93.9246 73.6345 96.5 71C99.8014 67.6228 102.612 66.7476 107 65C112.017 63.0016 120.5 62 120.5 62C120.5 62 120.457 73.7284 117 80C114.924 83.7661 113.663 86.248 110 88.5C106.732 90.5091 104.333 91.1655 100.5 91Z" fill="#1A1A1A" stroke="#FCEEA1"/>
<line x1="1" y1="-1" x2="33.2677" y2="-1" transform="matrix(-0.663917 -0.747806 0.842801 -0.538225 65.9279 63.1858)" stroke="#FCEEA1" stroke-width="2" stroke-linecap="round"/>
<path d="M60.8791 49.8076C60.5061 51.5157 59.1429 54.0052 59.1429 54.0052C59.1429 54.0052 54.1264 48.2725 49.955 43.6564C47.495 40.934 46.7274 39.2297 43.6863 37.621C42.7685 37.1356 41.2834 36.4529 41.2834 36.4529C41.2834 36.4529 41.578 38.1179 41.8713 39.1662C42.5767 41.6872 44.9365 43.5507 46.978 45.9436C51.58 51.3376 57.1844 56.4142 57.1844 56.4142C57.1844 56.4142 54.9373 56.8105 53.4759 56.852C51.067 56.9203 49.624 56.8332 47.3645 56.1216C43.8119 55.0027 42.2474 53.3739 39.9336 50.8284C36.9676 47.5653 36.4796 45.0304 35.3293 41.0274C34.0139 36.4498 34.2113 29 34.2113 29C34.2113 29 46.1512 30.4652 52.0432 34.2147C55.5812 36.4663 57.9282 37.8577 59.6963 41.2965C61.2736 44.3643 61.5978 46.5168 60.8791 49.8076Z" fill="#1A1A1A" stroke="#FCEEA1"/>
<path d="M57.1748 61.9458C58.4855 62.8823 60.2066 64.7374 60.2066 64.7374C60.2066 64.7374 54.36 65.3447 49.6216 65.9126C46.8272 66.2475 45.2562 65.995 43.2383 67.1427C42.6293 67.489 41.7281 68.0924 41.7281 68.0924C41.7281 68.0924 43.1578 68.6114 44.0828 68.8737C46.3073 69.5044 48.3762 68.8709 50.8046 68.6487C56.2785 68.148 61.7243 66.915 61.7243 66.915C61.7243 66.915 61.5295 68.4249 61.2259 69.3165C60.7255 70.7862 60.321 71.6131 59.2172 72.6677C57.4817 74.3258 55.7884 74.5816 53.1724 74.9029C49.819 75.3147 47.6332 74.5481 44.094 73.5647C40.0468 72.4401 34 69.2111 34 69.2111C34 69.2111 37.9557 62.6798 42.3826 60.7206C45.041 59.5442 46.7209 58.7211 49.9414 59.0994C52.8145 59.4368 54.6496 60.1417 57.1748 61.9458Z" fill="#1A1A1A" stroke="#FCEEA1"/>
<path d="M92.8683 103.946C91.6537 102.888 90.119 100.876 90.119 100.876C90.119 100.876 95.9969 100.833 100.768 100.724C103.582 100.659 105.121 101.061 107.24 100.113C107.879 99.8269 108.834 99.3129 108.834 99.3129C108.834 99.3129 107.461 98.6588 106.566 98.3088C104.412 97.4671 102.292 97.8988 99.8535 97.8865C94.3568 97.8585 88.8176 98.5622 88.8176 98.5622C88.8176 98.5622 89.1567 97.0781 89.5446 96.2198C90.1841 94.8051 90.6662 94.0209 91.8662 93.0773C93.7531 91.5937 95.4631 91.5019 98.0979 91.4336C101.475 91.3461 103.577 92.3193 107.006 93.6385C110.926 95.147 116.634 98.9424 116.634 98.9424C116.634 98.9424 112.069 105.063 107.474 106.588C104.715 107.503 102.964 108.161 99.7945 107.475C96.9672 106.862 95.2083 105.984 92.8683 103.946Z" fill="#1A1A1A" stroke="#FCEEA1"/>
</svg>
