<svg width="510" height="511" viewBox="0 0 510 511" fill="none" xmlns="http://www.w3.org/2000/svg">
<path d="M255 0C114.167 0 0 114.391 0 255.5C0 396.609 114.167 511 255 511C395.833 511 510 396.609 510 255.5C510 114.391 395.833 0 255 0Z" fill="#FFC4E5"/>
<path d="M254.5 28C128.856 28 27 129.856 27 255.5C27 381.144 128.856 483 254.5 483C380.144 483 482 381.144 482 255.5C482 129.856 380.144 28 254.5 28Z" fill="#1A1A1A"/>
<path d="M258.498 410C258.498 410 232.612 391.533 222.861 375.778C213.401 360.49 210 333 210 333H307C307 333 303.599 360.491 294.137 375.777C284.387 391.534 258.498 410 258.498 410Z" fill="#FFC4E5"/>
<path d="M423 291.934C423 291.934 395.303 307.876 374.889 311.589C355.078 315.192 323 310.758 323 310.758L348.245 233C348.245 233 378.555 242.887 393.439 254.452C408.78 266.372 423 291.934 423 291.934Z" fill="#FFC4E5"/>
<path d="M368.599 374.999C368.599 374.999 335.339 375.221 316.11 368.713C297.452 362.398 274 343.654 274 343.654L345.946 291C345.946 291 364.355 313.436 368.974 330.023C373.742 347.116 368.599 374.999 368.599 374.999Z" fill="#FFC4E5"/>
<path d="M254.501 417C254.501 417 280.387 399.253 290.137 384.112C299.601 369.42 303 343 303 343L206 343.001C206 343.001 209.401 369.42 218.862 384.111C228.612 399.254 254.501 417 254.501 417Z" fill="#FFC4E5"/>
<path d="M93 301.671C93 301.671 120.964 317.811 141.587 321.572C161.598 325.219 194 320.73 194 320.73L168.508 242C168.508 242 137.871 252.004 122.839 263.715C107.363 275.789 93 301.671 93 301.671Z" fill="#FFC4E5"/>
<path d="M144.476 384.999C144.476 384.999 178.765 385.221 198.586 378.713C217.82 372.398 242 353.654 242 353.654L167.829 301C167.829 301 148.852 323.436 144.086 340.022C139.175 357.116 144.476 384.999 144.476 384.999Z" fill="#FFC4E5"/>
<path d="M258.511 97C258.511 97 232.622 115.467 222.864 131.222C213.393 146.507 210 174 210 174L307 173.997C307 173.997 303.609 146.508 294.136 131.219C284.388 115.464 258.511 97 258.511 97Z" fill="#FFC4E5"/>
<path d="M423 212.068C423 212.068 395.296 196.121 374.892 192.411C355.083 188.808 323 193.241 323 193.241L348.25 271C348.25 271 378.555 261.114 393.44 249.548C408.779 237.628 423 212.068 423 212.068Z" fill="#FFC4E5"/>
<path d="M368.591 129.001C368.591 129.001 335.349 128.778 316.112 135.517C297.456 142.058 274 161.472 274 161.472L345.936 216C345.936 216 364.346 192.763 368.969 175.585C373.749 157.885 368.591 129.001 368.591 129.001Z" fill="#FFC4E5"/>
<path d="M254.51 97C254.51 97 280.39 115.463 290.138 131.218C299.608 146.509 303 173.998 303 173.998L206 174C206 174 209.394 146.507 218.864 131.221C228.621 115.466 254.51 97 254.51 97Z" fill="#FFC4E5"/>
<path d="M93 212.064C93 212.064 120.971 196.121 141.591 192.41C161.601 188.808 194 193.244 194 193.244L168.481 271C168.481 271 137.888 261.116 122.861 249.552C107.374 237.631 93 212.064 93 212.064Z" fill="#FFC4E5"/>
<path d="M144.484 129.001C144.484 129.001 178.772 128.771 198.586 135.511C217.834 142.054 242 161.466 242 161.466L167.822 216C167.822 216 148.855 192.764 144.082 175.584C139.174 157.879 144.484 129.001 144.484 129.001Z" fill="#FFC4E5"/>
<path d="M259.999 378C259.999 378 240.252 363.371 232.814 350.889C225.595 338.779 223 317.001 223 317.001L297 317C297 317 294.408 338.779 287.189 350.889C279.75 363.371 259.999 378 259.999 378Z" fill="#1A1A1A"/>
<path d="M384 287.674C384 287.674 363.508 300.029 348.399 302.907C333.74 305.698 310 302.263 310 302.263L328.677 242C328.677 242 351.112 249.664 362.13 258.627C373.479 267.865 384 287.674 384 287.674Z" fill="#1A1A1A"/>
<path d="M343.168 351.999C343.168 351.999 317.793 352.168 303.123 347.209C288.89 342.398 271 328.117 271 328.117L325.886 288C325.886 288 339.93 305.095 343.458 317.731C347.089 330.754 343.168 351.999 343.168 351.999Z" fill="#1A1A1A"/>
<path d="M256.501 385C256.501 385 276.514 370.85 284.054 358.778C291.37 347.064 294 326 294 326L219 326.001C219 326.001 221.628 347.064 228.944 358.778C236.483 370.85 256.501 385 256.501 385Z" fill="#1A1A1A"/>
<path d="M132 293.937C132 293.937 153.596 306.093 169.523 308.924C184.974 311.671 210 308.29 210 308.29L190.313 249C190.313 249 166.652 256.534 155.059 265.358C143.097 274.447 132 293.937 132 293.937Z" fill="#1A1A1A"/>
<path d="M172.831 358.999C172.831 358.999 198.206 359.171 212.876 354.135C227.109 349.248 245 334.743 245 334.743L190.114 294C190.114 294 176.07 311.361 172.544 324.195C168.91 337.423 172.831 358.999 172.831 358.999Z" fill="#1A1A1A"/>
<path d="M260.006 136C260.006 136 240.253 150.629 232.815 163.11C225.603 175.222 223 196.998 223 196.998L297 197C297 197 294.405 175.222 287.188 163.111C279.753 150.63 260.006 136 260.006 136Z" fill="#1A1A1A"/>
<path d="M384 226.059C384 226.059 363.51 213.905 348.41 211.076C333.748 208.329 310 211.709 310 211.709L328.686 271C328.686 271 351.118 263.461 362.134 254.643C373.487 245.553 384 226.059 384 226.059Z" fill="#1A1A1A"/>
<path d="M343.18 165.001C343.18 165.001 317.796 164.831 303.118 169.787C288.886 174.6 271 188.881 271 188.881L325.891 229C325.891 229 339.94 211.907 343.457 199.267C347.084 186.242 343.18 165.001 343.18 165.001Z" fill="#1A1A1A"/>
<path d="M256.505 136C256.505 136 276.521 150.629 284.057 163.111C291.372 175.221 294 197 294 197L219 196.998C219 196.998 221.638 175.221 228.948 163.11C236.487 150.628 256.505 136 256.505 136Z" fill="#1A1A1A"/>
<path d="M132 226.066C132 226.066 153.602 213.908 169.521 211.076C184.977 208.329 210 211.708 210 211.708L190.291 271C190.291 271 166.66 263.464 155.042 254.643C143.09 245.558 132 226.066 132 226.066Z" fill="#1A1A1A"/>
<path d="M172.839 165.001C172.839 165.001 198.205 164.831 212.864 169.786C227.12 174.603 245 188.88 245 188.88L190.12 229C190.12 229 176.068 211.903 172.535 199.265C168.912 186.244 172.839 165.001 172.839 165.001Z" fill="#1A1A1A"/>
<path d="M256.5 346C256.5 346 241.821 335.208 236.292 326C230.929 317.065 229 301 229 301H284C284 301 282.071 317.065 276.708 326C271.18 335.208 256.5 346 256.5 346Z" fill="#FFC4E5"/>
<path d="M349 279.15C349 279.15 332.662 288.118 320.615 290.206C308.928 292.233 290 289.739 290 289.739L304.897 246C304.897 246 322.78 251.561 331.562 258.067C340.614 264.771 349 279.15 349 279.15Z" fill="#FFC4E5"/>
<path d="M318.639 325.999C318.639 325.999 299.78 326.125 288.875 322.406C278.297 318.797 265 308.087 265 308.087L305.793 278C305.793 278 316.233 290.82 318.851 300.298C321.554 310.066 318.639 325.999 318.639 325.999Z" fill="#FFC4E5"/>
<path d="M253.501 349C253.501 349 268.177 338.928 273.706 330.334C279.07 321.995 281 307 281 307H226C226 307 227.929 321.995 233.294 330.334C238.823 338.928 253.501 349 253.501 349Z" fill="#FFC4E5"/>
<path d="M161 285.147C161 285.147 177.071 294.118 188.909 296.206C200.399 298.233 219 295.739 219 295.739L204.365 252C204.365 252 186.796 257.563 178.157 264.067C169.268 270.774 161 285.147 161 285.147Z" fill="#FFC4E5"/>
<path d="M191.36 330C191.36 330 210.22 330.121 221.121 326.557C231.701 323.099 245 312.834 245 312.834L204.206 284C204.206 284 193.77 296.286 191.148 305.369C188.446 314.73 191.36 330 191.36 330Z" fill="#FFC4E5"/>
<path d="M256.513 168C256.513 168 241.827 178.791 236.288 187.998C230.925 196.933 229 213 229 213L284 212.998C284 212.998 282.086 196.935 276.7 187.995C271.175 178.788 256.513 168 256.513 168Z" fill="#FFC4E5"/>
<path d="M349 234.846C349 234.846 332.655 225.878 320.629 223.795C308.933 221.766 290 224.261 290 224.261L304.896 268C304.896 268 322.784 262.44 331.568 255.933C340.62 249.228 349 234.846 349 234.846Z" fill="#FFC4E5"/>
<path d="M318.637 187.001C318.637 187.001 299.775 186.872 288.875 190.671C278.288 194.353 265 205.289 265 205.289L305.797 236C305.797 236 316.227 222.91 318.849 213.236C321.557 203.266 318.637 187.001 318.637 187.001Z" fill="#FFC4E5"/>
<path d="M253.488 168C253.488 168 268.177 178.792 273.701 187.998C279.085 196.938 281 212.999 281 212.999L226 213C226 213 227.925 196.935 233.288 188.002C238.828 178.796 253.488 168 253.488 168Z" fill="#FFC4E5"/>
<path d="M161 234.847C161 234.847 177.065 225.881 188.909 223.793C200.39 221.767 219 224.263 219 224.263L204.351 268C204.351 268 186.778 262.44 178.143 255.933C169.264 249.231 161 234.847 161 234.847Z" fill="#FFC4E5"/>
<path d="M191.358 187C191.358 187 210.229 186.874 221.124 190.67C231.687 194.35 245 205.288 245 205.288L204.201 236C204.201 236 193.772 222.913 191.136 213.234C188.456 203.268 191.358 187 191.358 187Z" fill="#FFC4E5"/>
<path d="M255.003 330C255.003 330 242.725 321.365 238.1 314C233.614 306.853 232 294 232 294H278C278 294 276.389 306.852 271.902 313.999C267.278 321.366 255.003 330 255.003 330Z" fill="#1A1A1A"/>
<path d="M329 274.784C329 274.784 316.537 281.759 307.351 283.383C298.434 284.958 284 283.019 284 283.019L295.356 249C295.356 249 308.999 253.326 315.7 258.386C322.602 263.6 329 274.784 329 274.784Z" fill="#1A1A1A"/>
<path d="M305.863 313C305.863 313 290.086 313.099 280.969 310.154C272.122 307.298 261 298.819 261 298.819L295.119 275C295.119 275 303.846 285.15 306.039 292.653C308.299 300.386 305.863 313 305.863 313Z" fill="#1A1A1A"/>
<path d="M252.999 333C252.999 333 264.206 324.366 268.431 317C272.526 309.853 274 297 274 297H232C232 297 233.473 309.852 237.569 316.999C241.792 324.366 252.999 333 252.999 333Z" fill="#1A1A1A"/>
<path d="M181 280.733C181 280.733 193.457 288.503 202.645 290.313C211.562 292.068 226 289.907 226 289.907L214.625 252C214.625 252 200.984 256.818 194.296 262.46C187.4 268.273 181 280.733 181 280.733Z" fill="#1A1A1A"/>
<path d="M204.04 317C204.04 317 218.442 317.101 226.765 314.08C234.845 311.149 245 302.446 245 302.446L213.839 278C213.839 278 205.877 288.419 203.876 296.118C201.813 304.054 204.04 317 204.04 317Z" fill="#1A1A1A"/>
<path d="M255.009 187C255.009 187 242.721 195.632 238.106 203C233.599 210.143 232 223 232 223L278 222.998C278 222.998 276.394 210.147 271.904 202.999C267.282 195.632 255.009 187 255.009 187Z" fill="#1A1A1A"/>
<path d="M329 238.479C329 238.479 316.532 231.305 307.351 229.636C298.426 228.012 284 230.011 284 230.011L295.357 265C295.357 265 308.998 260.551 315.699 255.347C322.601 249.982 329 238.479 329 238.479Z" fill="#1A1A1A"/>
<path d="M305.866 204C305.866 204 290.098 203.91 280.962 206.618C272.127 209.252 261 217.062 261 217.062L295.115 239C295.115 239 303.859 229.655 306.035 222.739C308.301 215.617 305.866 204 305.866 204Z" fill="#1A1A1A"/>
<path d="M252.994 187C252.994 187 264.216 195.638 268.436 203.003C272.51 210.144 274 223 274 223L232 222.996C232 222.996 233.48 210.147 237.57 202.999C241.808 195.637 252.994 187 252.994 187Z" fill="#1A1A1A"/>
<path d="M181 238.477C181 238.477 193.462 231.302 202.658 229.635C211.569 228.014 226 230.009 226 230.009L214.626 265C214.626 265 200.989 260.549 194.303 255.348C187.403 249.983 181 238.477 181 238.477Z" fill="#1A1A1A"/>
<path d="M204.032 204C204.032 204 218.449 203.911 226.781 206.625C234.86 209.254 245 217.061 245 217.061L213.841 239C213.841 239 205.881 229.653 203.883 222.744C201.812 215.619 204.032 204 204.032 204Z" fill="#1A1A1A"/>
<path d="M253 213C227.043 213 206 232.7 206 257C206 281.3 227.043 301 253 301C278.958 301 300 281.3 300 257C300 232.7 278.958 213 253 213Z" fill="#FFC4E5"/>
</svg>
