<svg width="137" height="135" viewBox="0 0 137 135" fill="none" xmlns="http://www.w3.org/2000/svg">
<path d="M135.5 67.5C135.5 103.93 105.524 133.5 68.5 133.5C31.476 133.5 1.5 103.93 1.5 67.5C1.5 31.0699 31.476 1.5 68.5 1.5C105.524 1.5 135.5 31.0699 135.5 67.5Z" fill="#1A1A1A" stroke="#BCEAFF" stroke-width="3"/>
<path d="M17 109.5C17 109.5 47.9144 101.851 63.5 98C63.5 98 114.5 87 113.5 74.5C112.5 62 73.5 55 73.5 42C73.5 29 118.5 23 118.5 23" stroke="#BCEAFF" stroke-width="1.5"/>
<path d="M9 97.5C9 97.5 44.4144 92.851 60 89C60 89 103.5 80.5 103.5 73.5C103.5 66.5 60 58 68.5 38C72.9156 27.6103 116.5 21 116.5 21" stroke="#BCEAFF" stroke-width="1.5"/>
<path d="M35.2573 88.9328C35.2576 91.07 34.6269 92.9744 33.6442 94.3263C32.661 95.6789 31.3662 96.4344 30.0085 96.4346C28.6507 96.4348 27.3558 95.6797 26.3721 94.3275C25.3889 92.9759 24.7576 91.0716 24.7573 88.9345C24.757 86.7973 25.3877 84.8928 26.3704 83.541C27.3536 82.1884 28.6484 81.4329 30.0061 81.4326C31.3638 81.4324 32.6588 82.1875 33.6425 83.5398C34.6256 84.8914 35.257 86.7956 35.2573 88.9328Z" fill="#1A1A1A" stroke="#BCEAFF" stroke-width="1.5"/>
<path d="M59.0001 56.01L39 51.5C39 51.5 46.961 53.3761 48.5001 59.5097C49.9914 65.4529 45.4729 73.5373 45.4729 73.5373L72 77.5C72 77.5 75.4196 67.5 74 64C72.5804 60.5 68.5001 59.0098 68.5001 59.0098C63.8087 56.8591 59.0001 56.01 59.0001 56.01Z" fill="#1A1A1A" stroke="#FCD6EB" stroke-width="3"/>
<path d="M25.4045 58.9262C23.4431 63.6716 27.6306 73.339 27.6306 73.339L45.8655 73.3361C45.8655 73.3361 50.4563 63.7082 48.5317 58.9225C46.5096 53.8946 42.0142 51.1199 36.0774 51.3219C30.4106 51.5148 27.3818 54.1424 25.4045 58.9262Z" fill="#1A1A1A" stroke="#FCD6EB" stroke-width="3"/>
<rect x="30.641" y="84.1825" width="14.6156" height="4.00066" fill="#1A1A1A" stroke="#FCD6EB" stroke-width="1.5"/>
<rect x="45.7986" y="84.1805" width="23.458" height="4.00066" fill="#1A1A1A" stroke="#FCD6EB" stroke-width="1.5"/>
<path d="M56.4999 55.5C56.4999 55.5 58.6023 57.58 59.5001 60.5098C61.0397 65.5343 57.0052 75.6352 57.0052 75.6352" stroke="#FCD6EB" stroke-width="1.5"/>
<path d="M52 55.001C52 55.001 54.1023 57.081 55.0001 60.0107C56.5398 65.0352 52.5052 75.1362 52.5052 75.1362" stroke="#FCD6EB"/>
<path d="M64.4999 57.5C64.4999 57.5 66.1022 58.5712 67 61.501C68.5397 66.5255 64.5051 76.6264 64.5051 76.6264" stroke="#FCD6EB" stroke-width="1.5"/>
<path d="M61 57C61 57 62.6023 58.0712 63.5001 61.001C65.0397 66.0255 61.0052 76.1264 61.0052 76.1264" stroke="#FCD6EB"/>
<path d="M68 59C68 59 69.6023 60.0712 70.5001 63.001C72.0397 68.0255 68.0052 78.1264 68.0052 78.1264" stroke="#FCD6EB"/>
<path d="M30.5567 83.6004L28.1287 74.0995L45.2769 74.0967L45.2784 83.5981L30.5567 83.6004Z" fill="#1A1A1A" stroke="#FCD6EB" stroke-width="1.5"/>
<path d="M69.9614 83.5931L45.7735 83.5969L45.772 74.2174L71.5896 78.1129L69.9614 83.5931Z" fill="#1A1A1A" stroke="#FCD6EB" stroke-width="1.5"/>
<path d="M70 82L45 80.5" stroke="#FCD6EB"/>
<path d="M70.5 80.75L45 78.5" stroke="#FCD6EB"/>
<path d="M71 79.5L45 76.5" stroke="#FCD6EB"/>
<line x1="30" y1="80.5" x2="45" y2="80.5" stroke="#FCD6EB"/>
<line x1="29.5" y1="78.5" x2="45" y2="78.5" stroke="#FCD6EB"/>
<line x1="29" y1="76.5" x2="45" y2="76.5" stroke="#FCD6EB"/>
<path d="M58.2575 89.8457C58.2579 92.2526 57.6183 94.3973 56.6236 95.9178C55.6245 97.4449 54.3304 98.2641 53.0088 98.2643C51.6873 98.2645 50.3929 97.4457 49.3934 95.919C48.3981 94.3988 47.7579 92.2543 47.7575 89.8473C47.7571 87.4404 48.3967 85.2957 49.3914 83.7752C50.3905 82.2481 51.6846 81.4289 53.0062 81.4287C54.3277 81.4285 55.6221 82.2473 56.6216 83.7741C57.6169 85.2942 58.2571 87.4387 58.2575 89.8457Z" fill="#1A1A1A" stroke="#BCEAFF" stroke-width="1.5"/>
<path d="M75.2573 88.4673C75.2576 90.2413 74.7858 91.813 74.0625 92.9187C73.3348 94.031 72.4156 94.5936 71.5083 94.5937C70.601 94.5939 69.6816 94.0316 68.9536 92.9195C68.2299 91.8141 67.7576 90.2425 67.7573 88.4685C67.757 86.6944 68.2288 85.1227 68.9522 84.0171C69.6799 82.9048 70.599 82.3422 71.5063 82.3421C72.4137 82.3419 73.333 82.9042 74.061 84.0162C74.7848 85.1217 75.257 86.6933 75.2573 88.4673Z" fill="#1A1A1A" stroke="#BCEAFF" stroke-width="1.5"/>
</svg>
